<svg width="61" height="61" viewBox="0 0 61 61" fill="none" xmlns="http://www.w3.org/2000/svg">
<g id="dj-dj-svgrepo-com 1" clip-path="url(#clip0_1_113)">
<g id="Group">
<g id="Group_2">
<path id="Vector" d="M9.72274 4.08801H4.54407V7.26469H9.72274V4.08801Z" fill="black"/>
<path id="Vector_2" d="M7.13395 46.5825C5.56824 46.5825 4.29443 47.8563 4.29443 49.4212C4.29443 50.986 5.56824 52.2598 7.13395 52.2598C8.69879 52.2598 9.97259 50.986 9.97259 49.4212C9.97259 47.8563 8.69879 46.5825 7.13395 46.5825ZM7.13395 51.224C6.13973 51.224 5.3302 50.4154 5.3302 49.4212C5.3302 48.4269 6.13973 47.6183 7.13395 47.6183C8.12817 47.6183 8.93682 48.4269 8.93682 49.4212C8.93682 50.4154 8.12817 51.224 7.13395 51.224Z" fill="black"/>
<path id="Vector_3" d="M55.9285 56.8473H5.07142C3.35517 56.8473 1.96411 55.4564 1.96411 53.74V57.8929C1.96411 59.6092 3.355 61.0002 5.07142 61.0002H55.9285C57.6448 61.0002 59.0358 59.6093 59.0358 57.8929V53.74C59.0358 55.4562 57.6449 56.8473 55.9285 56.8473Z" fill="black"/>
<path id="Vector_4" d="M30.4974 5.31128C18.063 5.31128 7.9823 15.392 7.9823 27.8264C7.9823 40.2607 18.063 50.3415 30.4974 50.3415C42.9317 50.3415 53.0125 40.2607 53.0125 27.8264C53.0125 15.392 42.9317 5.31128 30.4974 5.31128ZM30.4974 37.5944C25.1032 37.5944 20.7295 33.2216 20.7295 27.8265C20.7295 22.4324 25.1023 18.0587 30.4974 18.0587C35.8916 18.0587 40.2653 22.4315 40.2653 27.8265C40.2644 33.2205 35.8916 37.5944 30.4974 37.5944Z" fill="black"/>
<path id="Vector_5" d="M30.4973 26.2697C29.6374 26.2697 28.9406 26.9665 28.9406 27.8264C28.9406 28.6863 29.6374 29.3831 30.4973 29.3831C31.3573 29.3831 32.054 28.6863 32.054 27.8264C32.054 26.9665 31.3563 26.2697 30.4973 26.2697Z" fill="black"/>
<path id="Vector_6" d="M53.3398 3.57056C51.774 3.57056 50.5002 4.84436 50.5002 6.41008C50.5002 7.97491 51.774 9.24871 53.3398 9.24871C54.9046 9.24871 56.1784 7.97491 56.1784 6.41008C56.1784 4.84348 54.9046 3.57056 53.3398 3.57056ZM53.3398 8.21206C52.3455 8.21206 51.536 7.40341 51.536 6.40919C51.536 5.41498 52.3455 4.60545 53.3398 4.60545C54.334 4.60545 55.1426 5.41498 55.1426 6.40919C55.1426 7.40359 54.334 8.21206 53.3398 8.21206Z" fill="black"/>
<path id="Vector_7" d="M55.9285 48.5657H50.7499V51.7423H55.9285V48.5657Z" fill="black"/>
<path id="Vector_8" d="M55.9285 0H5.07142C3.35517 0 1.96411 1.39089 1.96411 3.10731V52.1714C1.96411 53.8876 3.355 55.2787 5.07142 55.2787H55.9285C57.6448 55.2787 59.0358 53.8878 59.0358 52.1714V3.10731C59.0358 1.39089 57.6449 0 55.9285 0ZM55.9285 54.2429H5.07142C3.92931 54.2429 2.99988 53.3135 2.99988 52.1714V3.10731C2.99988 1.9652 3.92931 1.03577 5.07142 1.03577H55.9285C57.0706 1.03577 58.0001 1.9652 58.0001 3.10731V52.1714C58.0001 53.3135 57.0706 54.2429 55.9285 54.2429Z" fill="black"/>
</g>
</g>
</g>
<defs>
<clipPath id="clip0_1_113">
<rect width="61" height="61" fill="white"/>
</clipPath>
</defs>
</svg>
