<svg width="949" height="953" viewBox="0 0 949 953" fill="none" xmlns="http://www.w3.org/2000/svg">
<path d="M221.199 694.416L135.204 754.37L123.861 738.099L178.179 682.077L107.339 714.402L95.9275 698.034L181.922 638.08L190.064 649.757L158.011 672.104L128.256 692.122L197.406 661.121L204.661 671.529L152 726.178L181.073 705.182L213.126 682.836L221.199 694.416Z" fill="white"/>
<path d="M169.133 605.002C171.25 610.013 171.919 614.558 171.142 618.637C170.349 622.678 168.184 626.33 164.648 629.591C161.111 632.852 156.271 635.78 150.126 638.376L105.957 657.032C100.398 659.38 95.3335 660.657 90.765 660.862C86.1966 661.068 82.1795 660.028 78.7138 657.741C75.2482 655.455 72.4261 651.733 70.2477 646.576C68.6099 642.698 67.8307 639.17 67.9099 635.99C67.9892 632.81 68.8334 629.91 70.4425 627.291C72.0151 624.687 74.2929 622.324 77.276 620.202C80.207 618.058 83.7574 616.106 87.9273 614.345L132.095 595.689C138.241 593.093 143.707 591.647 148.495 591.348C153.267 591.014 157.371 591.953 160.806 594.166C164.241 596.379 167.016 599.991 169.133 605.002ZM156.404 610.379C155.631 608.55 154.503 607.41 153.02 606.959C151.536 606.508 149.617 606.607 147.262 607.257C144.855 607.886 141.932 608.926 138.494 610.379L93.503 629.382C89.2965 631.159 86.2293 632.929 84.3014 634.691C82.3214 636.433 81.8799 638.602 82.9768 641.199C84.1047 643.869 85.9851 645.209 88.6181 645.217C91.2144 645.241 94.6707 644.342 98.987 642.519L144.033 623.492C147.544 622.009 150.372 620.642 152.517 619.391C154.609 618.12 155.984 616.784 156.643 615.385C157.287 613.95 157.207 612.281 156.404 610.379Z" fill="white"/>
<path d="M155.5 571.526L52.7715 594.583L49.2604 578.941L90.8187 569.613L87.6744 555.604L46.1161 564.932L42.6051 549.289L145.333 526.232L148.844 541.874L101.099 552.591L104.243 566.599L151.989 555.883L155.5 571.526Z" fill="white"/>
<path d="M143.523 518.081L38.0811 508.343L37.0364 487.284L140.949 466.206L141.687 481.078L123.131 484.504L123.97 501.398L142.761 502.732L143.523 518.081ZM111.103 500.486L110.424 486.804L58.1838 496.432L58.1956 496.67L111.103 500.486Z" fill="white"/>
<path d="M140.758 457.625L36.9871 445.05L38.4876 432.668L103.415 418.221L74.9784 415.911L41.017 411.796L42.739 397.586L146.51 410.162L145.152 421.364L77.9716 436.137L105.319 438.553L142.523 443.062L140.758 457.625Z" fill="white"/>
<path d="M148.657 401.659L52.357 356.904L58.472 336.663L163.72 351.798L159.402 366.093L140.722 363.07L135.816 379.309L153.114 386.906L148.657 401.659ZM123.972 374.109L127.945 360.958L75.3595 352.435L75.2904 352.663L123.972 374.109Z" fill="white"/>
<path d="M166.295 345.13L74.3827 294.73L83.9187 277.34L158.236 301.111L97.8075 252.012L107.401 234.517L199.313 284.918L192.469 297.399L158.21 278.613L127.059 260.852L185.55 309.024L179.451 320.148L107.099 297.251L138.823 313.968L173.081 332.754L166.295 345.13Z" fill="white"/>
<path d="M204.198 279.337L134.24 199.83L147.947 183.804L237.961 239.861L228.281 251.178L212.44 240.922L201.444 253.779L214.188 267.657L204.198 279.337ZM192.717 244.277L201.623 233.865L157.035 204.98L156.88 205.161L192.717 244.277Z" fill="white"/>
<path d="M244.057 233.842L177.01 153.261L186.625 145.261L243.931 179.4L224.775 158.148L202.832 131.776L213.866 122.595L280.913 203.175L272.214 210.413L213.041 174.961L231.328 195.542L255.366 224.432L244.057 233.842Z" fill="white"/>
<path d="M298.606 192.228L252.092 114.006L241.546 120.277L234.484 108.4L268.834 87.9741L275.896 99.8507L265.76 105.878L312.275 184.1L298.606 192.228Z" fill="white"/>
<path d="M330.241 174.042L290.92 76.8674L315.379 66.9703C320.459 64.9149 324.652 64.3746 327.96 65.3495C331.267 66.3244 334.081 68.5694 336.403 72.0847C338.762 75.5851 341.059 80.096 343.293 85.6172C345.601 91.3225 346.83 96.0515 346.977 99.804C347.147 103.505 345.67 106.63 342.546 109.179C344.359 108.788 346.059 108.914 347.647 109.557C349.22 110.162 350.78 111.373 352.329 113.188C353.862 114.966 355.439 117.434 357.059 120.59C358.701 123.696 360.475 127.604 362.381 132.315C362.53 132.683 362.947 133.714 363.632 135.407C364.318 137.1 365.129 139.106 366.068 141.425C367.028 143.693 367.988 145.96 368.948 148.227C369.909 150.494 370.753 152.423 371.482 154.013C372.211 155.602 372.69 156.522 372.92 156.772L358.123 162.759C357.938 162.62 357.466 161.719 356.708 160.055C355.971 158.34 355.029 156.172 353.883 153.552C352.774 150.917 351.583 148.079 350.31 145.039C349.074 141.984 347.86 138.984 346.668 136.039C345.462 133.058 344.397 130.426 343.474 128.144C342.297 125.236 341.19 123.135 340.152 121.841C339.137 120.496 337.939 119.76 336.56 119.633C335.218 119.491 333.475 119.789 331.332 120.527L326.472 122.173L345.038 168.054L330.241 174.042ZM321.88 110.666L327.788 108.275C329.592 107.546 330.79 106.59 331.382 105.408C332.012 104.211 332.053 102.459 331.505 100.153C330.994 97.8327 329.913 94.6295 328.259 90.5438L328.014 89.9365C326.628 86.5133 325.398 83.9485 324.322 82.2421C323.246 80.5358 322.033 79.5489 320.682 79.2814C319.369 78.9991 317.608 79.3048 315.399 80.1984L310.375 82.2315L321.88 110.666Z" fill="white"/>
<path d="M378.591 154.88L370.74 49.2836L391.335 44.7673L429.323 143.756L414.778 146.945L408.329 129.213L391.806 132.836L393.601 151.589L378.591 154.88ZM390.576 119.996L403.957 117.061L385.814 67.1369L385.581 67.1879L390.576 119.996Z" fill="white"/>
<path d="M464.699 141.162L464.822 134.968C464.899 131.156 465.37 127.432 466.238 123.795C467.144 120.158 468.47 116.471 470.213 112.732C471.956 108.993 474.12 105.064 476.705 100.945L487.413 83.939C488.151 82.7621 488.811 81.5439 489.392 80.2844C490.014 78.9859 490.539 77.5664 490.967 76.0258C491.395 74.4852 491.728 72.744 491.965 70.8023C492.243 68.8217 492.408 66.5608 492.459 64.0196C492.536 60.168 492.357 57.1852 491.922 55.0712C491.528 52.958 490.902 51.4757 490.045 50.6244C489.228 49.7739 488.224 49.3367 487.033 49.3129C485.841 49.2891 484.742 49.6444 483.734 50.379C482.767 51.0747 481.983 52.5288 481.383 54.7412C480.783 56.914 480.438 60.2438 480.349 64.7307L480.083 78.0127L464.836 77.7078L464.964 71.2752C465.115 63.7309 465.741 57.2686 466.842 51.8883C467.982 46.5088 470.149 42.4209 473.343 39.6248C476.538 36.7889 481.332 35.4349 487.725 35.5627C492.688 35.662 496.633 37.0517 499.558 39.732C502.484 42.4122 504.577 45.9696 505.839 50.404C507.102 54.7988 507.68 59.6566 507.574 64.9773C507.509 68.2333 507.15 71.2848 506.497 74.1318C505.884 76.9796 505.056 79.6641 504.012 82.1855C502.969 84.6672 501.79 87.0072 500.475 89.2053L490.483 106.166C489.167 108.443 487.849 110.761 486.531 113.118C485.252 115.476 484.051 117.954 482.926 120.553C481.842 123.153 480.912 125.955 480.137 128.958L504.318 129.442L504.068 141.95L464.699 141.162Z" fill="white"/>
<path d="M539.918 149.005C534.307 147.904 530.013 145.868 527.035 142.896C524.096 139.933 522.271 136.135 521.561 131.504C520.89 126.881 521.151 121.53 522.343 115.452L531.986 66.2982C533.147 60.3756 534.901 55.5605 537.247 51.8529C539.64 48.114 542.753 45.5483 546.587 44.1558C550.421 42.7633 555.085 42.606 560.579 43.6837C566.073 44.7614 570.312 46.6654 573.297 49.3955C576.321 52.1332 578.234 55.685 579.037 60.0507C579.847 64.3774 579.671 69.5021 578.509 75.4247L568.867 124.578C567.972 129.137 566.745 133.125 565.185 136.542C563.624 139.958 561.684 142.734 559.363 144.868C557.043 147.003 554.272 148.442 551.051 149.186C547.837 149.891 544.126 149.83 539.918 149.005ZM542.508 135.492C543.638 135.714 544.705 135.741 545.709 135.574C546.721 135.368 547.661 134.803 548.53 133.881C549.437 132.967 550.261 131.55 551.002 129.632C551.789 127.682 552.504 125.071 553.146 121.798L562.972 71.709C563.721 67.8905 563.924 64.9968 563.582 63.0279C563.248 61.02 562.553 59.6092 561.499 58.7954C560.445 57.9816 559.236 57.441 557.872 57.1734C556.547 56.9136 555.247 56.9417 553.971 57.2579C552.734 57.5817 551.565 58.5867 550.466 60.2728C549.405 61.9666 548.493 64.7617 547.728 68.6581L537.891 118.805C537.241 122.117 536.874 124.817 536.788 126.904C536.749 128.96 536.957 130.579 537.413 131.761C537.869 132.943 538.53 133.801 539.397 134.335C540.263 134.87 541.3 135.255 542.508 135.492Z" fill="white"/>
<path d="M577.902 156.913L580.118 151.129C581.481 147.569 583.187 144.226 585.235 141.099C587.321 137.986 589.817 134.967 592.723 132.041C595.63 129.115 598.996 126.153 602.823 123.155L618.658 110.789C619.751 109.932 620.784 109.01 621.758 108.022C622.783 107.012 623.758 105.854 624.682 104.55C625.607 103.246 626.51 101.722 627.391 99.9758C628.324 98.2072 629.245 96.1364 630.154 93.7635C631.531 90.167 632.374 87.301 632.682 85.1655C633.027 83.0441 632.941 81.4379 632.423 80.3469C631.943 79.27 631.146 78.5185 630.034 78.0924C628.922 77.6663 627.767 77.628 626.57 77.9774C625.425 78.3039 624.195 79.4059 622.881 81.2834C621.58 83.1238 620.128 86.1389 618.523 90.3286L613.772 102.731L599.534 97.2771L601.835 91.2706C604.534 84.2259 607.312 78.3599 610.171 73.6724C613.066 68.9992 616.49 65.8888 620.442 64.3413C624.408 62.7567 629.375 63.1077 635.345 65.3943C639.979 67.1697 643.218 69.8135 645.062 73.3258C646.905 76.8381 647.669 80.8935 647.353 85.4919C647.051 90.0533 645.949 94.8181 644.046 99.7865C642.881 102.827 641.509 105.575 639.931 108.032C638.389 110.502 636.7 112.747 634.864 114.765C633.043 116.745 631.141 118.547 629.159 120.169L614.014 132.735C612.003 134.431 609.979 136.164 607.94 137.934C605.939 139.718 603.969 141.642 602.03 143.706C600.129 145.784 598.305 148.104 596.558 150.666L619.138 159.315L614.664 170.995L577.902 156.913Z" fill="white"/>
<path d="M644.582 188.666C637.581 184.514 633.951 179.545 633.69 173.759C633.483 167.959 635.901 160.808 640.944 152.305L644.437 146.415L657.293 154.04L653.587 160.289C651.785 163.328 650.443 165.901 649.562 168.01C648.681 170.118 648.411 171.897 648.752 173.345C649.093 174.794 650.185 176.065 652.029 177.158C653.839 178.232 655.529 178.495 657.099 177.949C658.689 177.369 660.296 176.061 661.92 174.023C663.598 171.972 665.429 169.273 667.414 165.927C669.743 162 671.404 158.693 672.398 156.005C673.412 153.283 673.656 151.005 673.129 149.169C672.602 147.333 671.212 145.747 668.958 144.411L665.066 142.102L671.263 131.653L675.053 133.901C677.238 135.197 679.212 135.721 680.974 135.474C682.791 135.213 684.566 134.165 686.3 132.332C688.088 130.484 690.015 127.819 692.08 124.336C693.984 121.126 695.203 118.526 695.738 116.535C696.272 114.544 696.271 112.951 695.734 111.755C695.217 110.526 694.309 109.526 693.012 108.757C691.475 107.845 690.02 107.536 688.646 107.829C687.292 108.088 685.901 108.994 684.473 110.547C683.098 112.086 681.55 114.306 679.829 117.209L678.219 119.923L664.953 112.056L666.624 109.239C671.403 101.18 676.364 96.0447 681.507 93.8328C686.65 91.6209 692.721 92.5908 699.722 96.7423C706.551 100.793 710.379 105.74 711.205 111.584C712.032 117.429 710.096 124.312 705.398 132.234C702.583 136.981 699.418 140.643 695.905 143.221C692.411 145.765 688.688 146.672 684.735 145.944C686.477 148.454 687.404 151.173 687.514 154.1C687.624 157.027 687.089 160.148 685.907 163.463C684.746 166.744 683.062 170.245 680.855 173.967C675.65 182.743 670.147 188.48 664.346 191.179C658.58 193.898 651.991 193.06 644.582 188.666Z" fill="white"/>
<path d="M739.902 271.629L829.025 216.438L839.468 233.301L782.186 286.287L854.677 257.86L865.182 274.824L776.058 330.015L768.564 317.913L801.782 297.341L832.58 278.97L761.85 306.167L755.171 295.381L810.723 243.675L780.553 263.059L747.334 283.631L739.902 271.629Z" fill="white"/>
<path d="M787.052 363.732C785.21 358.614 784.788 354.04 785.785 350.01C786.796 346.017 789.155 342.488 792.863 339.424C796.571 336.359 801.563 333.698 807.839 331.439L852.952 315.204C858.631 313.161 863.756 312.16 868.329 312.202C872.902 312.245 876.856 313.501 880.193 315.972C883.53 318.442 886.146 322.312 888.042 327.579C889.467 331.54 890.054 335.105 889.802 338.276C889.551 341.447 888.551 344.297 886.802 346.825C885.091 349.34 882.688 351.576 879.595 353.533C876.552 355.514 872.901 357.271 868.642 358.804L823.529 375.038C817.253 377.297 811.716 378.446 806.919 378.484C802.136 378.56 798.089 377.4 794.78 375.004C791.47 372.608 788.894 368.851 787.052 363.732ZM800.053 359.054C800.726 360.922 801.79 362.121 803.247 362.652C804.704 363.182 806.626 363.187 809.012 362.666C811.45 362.168 814.424 361.288 817.936 360.024L863.889 343.487C868.186 341.941 871.344 340.34 873.365 338.684C875.436 337.053 875.995 334.911 875.04 332.258C874.059 329.531 872.254 328.092 869.625 327.94C867.034 327.776 863.534 328.487 859.126 330.073L813.116 346.63C809.53 347.921 806.632 349.133 804.423 350.265C802.265 351.421 800.819 352.68 800.085 354.042C799.365 355.44 799.354 357.111 800.053 359.054Z" fill="white"/>
<path d="M798.855 397.898L902.693 380.441L905.351 396.253L863.344 403.315L865.724 417.475L907.732 410.412L910.39 426.224L806.552 443.681L803.894 427.87L852.155 419.756L849.774 405.596L801.513 413.71L798.855 397.898Z" fill="white"/>
<path d="M807.913 451.914L912.67 467.355L912.571 488.439L807.67 503.851L807.74 488.961L826.453 486.547L826.533 469.632L807.841 467.281L807.913 451.914ZM839.331 471.24L839.267 484.939L891.951 478.157L891.952 477.919L839.331 471.24Z" fill="white"/>
<path d="M807.393 512.427L910.327 530.616L908.157 542.898L842.542 553.8L870.811 557.649L904.498 563.602L902.008 577.697L799.074 559.508L801.037 548.396L868.92 537.292L841.745 533.394L804.84 526.873L807.393 512.427Z" fill="white"/>
<path d="M796.474 567.884L890.205 617.796L883.001 637.676L778.729 616.854L783.817 602.815L802.305 606.846L808.084 590.897L791.224 582.373L796.474 567.884ZM819.629 596.732L814.949 609.649L866.994 621.012L867.075 620.787L819.629 596.732Z" fill="white"/>
<path d="M775.794 623.374L864.834 678.691L854.367 695.537L781.45 667.766L839.124 720.074L828.595 737.022L739.555 681.705L747.067 669.614L780.254 690.232L810.396 709.658L754.606 658.381L761.301 647.605L832.302 674.397L801.532 655.982L768.345 635.364L775.794 623.374Z" fill="white"/>
<path d="M734.377 687.012L799.914 770.185L785.361 785.443L698.528 724.595L708.806 713.82L724.066 724.919L735.742 712.679L723.77 698.132L734.377 687.012ZM743.939 722.638L734.484 732.551L777.435 763.807L777.6 763.635L743.939 722.638Z" fill="white"/>
<path d="M692.115 730.29L754.699 814.396L744.664 821.863L689.288 784.663L707.265 806.926L727.747 834.451L716.23 843.021L653.646 758.915L662.725 752.158L719.894 790.771L702.749 769.227L680.311 739.073L692.115 730.29Z" fill="white"/>
<path d="M635.388 768.876L677.596 849.497L688.465 843.807L694.874 856.048L659.47 874.583L653.061 862.342L663.508 856.873L621.3 776.251L635.388 768.876Z" fill="white"/>
<path d="M602.818 785.328L636.815 884.499L611.853 893.056C606.67 894.833 602.453 895.145 599.203 893.992C595.953 892.839 593.264 890.445 591.136 886.808C588.97 883.185 586.922 878.556 584.99 872.921C582.994 867.099 582.024 862.31 582.08 858.555C582.111 854.85 583.756 851.809 587.013 849.433C585.182 849.725 583.491 849.507 581.94 848.779C580.402 848.089 578.91 846.796 577.462 844.899C576.027 843.04 574.586 840.491 573.14 837.251C571.668 834.061 570.109 830.062 568.46 825.254C568.331 824.878 567.971 823.826 567.378 822.098C566.786 820.37 566.084 818.323 565.273 815.956C564.437 813.64 563.601 811.324 562.765 809.008C561.929 806.692 561.19 804.72 560.549 803.093C559.907 801.466 559.478 800.522 559.262 800.26L574.363 795.083C574.54 795.232 574.963 796.158 575.63 797.86C576.273 799.613 577.095 801.829 578.098 804.507C579.063 807.199 580.098 810.098 581.205 813.203C582.273 816.32 583.323 819.382 584.353 822.387C585.396 825.43 586.317 828.116 587.115 830.445C588.133 833.412 589.124 835.57 590.09 836.918C591.031 838.317 592.187 839.117 593.558 839.319C594.891 839.533 596.647 839.33 598.827 838.709L603.769 837.329L587.717 790.505L602.818 785.328ZM607.731 849.069L601.702 851.135C599.861 851.766 598.613 852.656 597.957 853.805C597.264 854.966 597.128 856.712 597.549 859.045C597.934 861.39 598.84 864.647 600.27 868.817L600.482 869.437C601.68 872.93 602.77 875.558 603.752 877.32C604.734 879.083 605.892 880.134 607.226 880.474C608.522 880.827 610.297 880.618 612.551 879.845L617.679 878.087L607.731 849.069Z" fill="white"/>
<path d="M553.499 801.835L555.61 907.704L534.8 911.097L502.237 810.192L516.934 807.796L522.412 825.852L539.108 823.131L538.332 804.307L553.499 801.835ZM539.64 836.019L526.119 838.223L541.527 889.059L541.762 889.021L539.64 836.019Z" fill="white"/>
<path d="M466.748 810.829L466.288 817.007C466.006 820.809 465.333 824.502 464.27 828.087C463.167 831.668 461.644 835.278 459.701 838.917C457.758 842.555 455.384 846.361 452.58 850.333L440.967 866.732C440.165 867.867 439.44 869.047 438.792 870.273C438.1 871.536 437.499 872.925 436.988 874.44C436.478 875.955 436.051 877.675 435.709 879.601C435.324 881.564 435.037 883.812 434.848 886.347C434.563 890.188 434.579 893.176 434.898 895.31C435.178 897.441 435.722 898.955 436.532 899.852C437.301 900.745 438.28 901.236 439.468 901.324C440.656 901.413 441.774 901.118 442.82 900.439C443.823 899.797 444.684 898.387 445.404 896.211C446.12 894.074 446.645 890.768 446.978 886.293L447.963 873.046L463.17 874.178L462.693 880.593C462.133 888.117 461.158 894.536 459.768 899.848C458.337 905.157 455.952 909.121 452.611 911.74C449.268 914.398 444.408 915.49 438.032 915.016C433.082 914.647 429.219 913.046 426.443 910.211C423.667 907.377 421.77 903.711 420.75 899.215C419.728 894.759 419.414 889.877 419.809 884.571C420.05 881.323 420.574 878.296 421.38 875.489C422.147 872.679 423.119 870.043 424.298 867.582C425.474 865.161 426.777 862.889 428.21 860.765L439.106 844.373C440.544 842.171 441.985 839.928 443.429 837.646C444.833 835.362 446.167 832.952 447.431 830.418C448.655 827.881 449.735 825.134 450.672 822.177L426.555 820.383L427.483 807.908L466.748 810.829Z" fill="white"/>
<path d="M392.087 798.955C397.63 800.358 401.808 802.624 404.62 805.752C407.394 808.871 409.01 812.762 409.468 817.424C409.888 822.077 409.337 827.405 407.817 833.41L395.525 881.968C394.044 887.818 392.032 892.531 389.488 896.106C386.897 899.71 383.649 902.103 379.745 903.286C375.842 904.468 371.176 904.372 365.749 902.999C360.321 901.625 356.192 899.494 353.359 896.606C350.488 893.708 348.77 890.058 348.206 885.656C347.631 881.291 348.084 876.184 349.566 870.333L361.858 821.776C362.998 817.272 364.439 813.357 366.183 810.03C367.926 806.703 370.014 804.037 372.447 802.031C374.88 800.026 377.724 798.739 380.981 798.171C384.228 797.641 387.93 797.902 392.087 798.955ZM388.768 812.307C387.652 812.024 386.588 811.939 385.577 812.052C384.556 812.203 383.586 812.715 382.669 813.589C381.713 814.453 380.813 815.822 379.97 817.698C379.078 819.602 378.223 822.171 377.405 825.404L364.879 874.885C363.924 878.658 363.564 881.536 363.798 883.521C364.024 885.544 364.64 886.99 365.649 887.86C366.658 888.729 367.836 889.335 369.183 889.676C370.492 890.007 371.792 890.049 373.083 889.803C374.335 889.547 375.556 888.606 376.746 886.982C377.897 885.349 378.959 882.607 379.934 878.758L392.474 829.219C393.302 825.947 393.816 823.271 394.015 821.192C394.165 819.141 394.045 817.513 393.654 816.308C393.262 815.103 392.649 814.211 391.813 813.63C390.976 813.05 389.962 812.609 388.768 812.307Z" fill="white"/>
<path d="M354.586 789L352.06 794.656C350.506 798.137 348.621 801.383 346.406 804.395C344.155 807.39 341.499 810.27 338.438 813.034C335.377 815.799 331.854 818.574 327.87 821.361L311.388 832.852C310.249 833.648 309.167 834.513 308.141 835.446C307.063 836.4 306.027 837.503 305.033 838.755C304.039 840.007 303.054 841.481 302.08 843.176C301.053 844.892 300.021 846.91 298.984 849.231C297.414 852.748 296.417 855.564 295.994 857.68C295.534 859.78 295.533 861.388 295.991 862.506C296.412 863.607 297.167 864.401 298.255 864.887C299.342 865.372 300.493 865.473 301.707 865.189C302.869 864.925 304.157 863.891 305.571 862.088C306.969 860.32 308.583 857.388 310.413 853.291L315.83 841.163L329.752 847.381L327.129 853.255C324.052 860.144 320.96 865.851 317.851 870.377C314.706 874.887 311.119 877.807 307.089 879.139C303.042 880.506 298.101 879.886 292.263 877.279C287.731 875.255 284.64 872.44 282.989 868.832C281.339 865.225 280.796 861.134 281.361 856.559C281.909 852.02 283.268 847.321 285.438 842.463C286.766 839.49 288.284 836.82 289.994 834.452C291.668 832.068 293.476 829.919 295.418 828.003C297.345 826.124 299.342 824.428 301.409 822.916L317.214 811.188C319.314 809.603 321.429 807.982 323.561 806.325C325.656 804.651 327.728 802.837 329.776 800.881C331.787 798.909 333.734 796.691 335.618 794.227L313.537 784.366L318.638 772.945L354.586 789Z" fill="white"/>
<path d="M289.73 753.673C296.495 758.198 299.851 763.356 299.798 769.148C299.689 774.951 296.887 781.961 291.391 790.177L287.583 795.87L275.159 787.559L279.198 781.52C281.163 778.583 282.642 776.086 283.636 774.028C284.631 771.971 284.997 770.21 284.735 768.745C284.473 767.28 283.451 765.951 281.669 764.759C279.92 763.589 278.247 763.234 276.649 763.694C275.03 764.187 273.354 765.407 271.622 767.353C269.836 769.311 267.861 771.906 265.697 775.14C263.159 778.935 261.32 782.148 260.182 784.778C259.022 787.44 258.655 789.703 259.082 791.564C259.508 793.426 260.81 795.085 262.988 796.542L266.75 799.058L259.996 809.156L256.333 806.706C254.221 805.293 252.278 804.663 250.505 804.814C248.677 804.976 246.848 805.926 245.017 807.663C243.132 809.411 241.063 811.968 238.811 815.334C236.737 818.436 235.378 820.966 234.737 822.925C234.095 824.884 234.01 826.475 234.481 827.698C234.931 828.954 235.783 830.001 237.037 830.84C238.522 831.834 239.958 832.221 241.346 832.003C242.711 831.818 244.15 830.989 245.66 829.516C247.116 828.054 248.782 825.92 250.659 823.115L252.413 820.492L265.234 829.067L263.413 831.79C258.203 839.578 252.971 844.436 247.715 846.366C242.46 848.296 236.45 846.998 229.685 842.473C223.085 838.059 219.531 832.911 219.023 827.03C218.514 821.149 220.821 814.381 225.942 806.725C229.01 802.138 232.368 798.653 236.017 796.269C239.643 793.918 243.41 793.214 247.318 794.156C245.714 791.555 244.936 788.789 244.985 785.861C245.034 782.932 245.738 779.844 247.097 776.598C248.434 773.385 250.306 769.98 252.712 766.383C258.385 757.902 264.191 752.471 270.13 750.091C276.036 747.689 282.569 748.883 289.73 753.673Z" fill="white"/>
<path d="M307.828 716.469L308.328 716.769L310.728 718.369V718.269C336.328 734.669 364.328 747.069 393.628 755.069L394.428 755.269L396.328 755.769C426.228 763.669 457.128 767.069 488.028 765.769L489.228 765.669C521.428 764.169 553.328 757.669 583.528 746.369L585.028 745.769C597.128 741.169 608.928 735.869 620.328 729.769L619.828 728.769L620.428 729.769C631.228 723.369 641.628 716.269 651.628 708.569L652.528 707.869L652.628 707.769L653.728 706.969L654.528 706.369C679.228 686.869 700.828 663.769 718.528 637.769L719.428 636.469L719.528 636.369L720.128 635.569L720.828 634.469C737.528 609.269 750.328 581.669 758.928 552.569L759.528 550.569C759.528 550.469 759.628 550.369 759.628 550.269L759.828 549.569L760.228 548.069C768.128 519.669 771.728 490.169 770.928 460.769L771.028 460.869L770.828 457.369V457.169V456.669V455.569V454.869C769.428 426.369 763.628 398.169 753.628 371.369L753.928 371.769L751.128 364.769L751.028 364.469L750.228 362.469L750.128 362.269C745.528 351.169 740.328 340.469 734.328 330.069C725.428 314.469 714.928 299.769 703.128 286.169L702.528 285.469C701.528 284.269 700.428 283.069 699.328 281.869L697.628 280.069C689.428 271.269 678.728 269.769 666.428 268.169C664.628 266.169 662.828 264.269 661.028 262.269L659.628 260.869C658.728 259.869 657.728 258.869 656.828 257.969C655.428 256.569 654.028 255.169 652.628 253.769C652.628 253.769 652.628 253.769 652.528 253.669C647.028 248.369 641.828 243.769 636.728 239.669L636.228 239.269C634.428 237.769 632.628 236.469 630.728 235.069C629.528 234.169 628.428 233.269 627.228 232.369C625.328 230.969 623.328 229.569 621.328 228.169C620.228 227.369 619.128 226.569 617.928 225.769C615.728 224.269 613.528 222.969 611.328 221.569C610.328 220.969 609.428 220.269 608.428 219.669C607.028 218.869 605.628 218.069 604.228 217.169C608.928 217.869 613.528 219.269 617.728 221.369L617.928 221.469L619.128 219.169L618.928 219.069L616.928 218.069C611.628 215.269 604.728 213.569 596.528 212.969C595.228 212.269 593.928 211.669 592.628 210.969C591.128 210.169 589.628 209.469 588.128 208.669C586.428 207.869 584.728 207.069 582.928 206.269C581.428 205.569 579.928 204.869 578.428 204.169C576.628 203.369 574.928 202.669 573.128 201.969C571.628 201.369 570.128 200.669 568.628 200.169C566.728 199.469 564.828 198.769 563.028 198.169C561.628 197.669 560.128 197.169 558.728 196.669C556.628 195.969 554.528 195.369 552.428 194.669C551.228 194.269 549.928 193.869 548.628 193.469C546.128 192.769 543.628 192.069 541.128 191.469C540.228 191.269 539.328 190.969 538.428 190.769C535.028 189.969 531.628 189.169 528.228 188.569H528.128C525.928 188.169 523.728 187.769 521.528 187.469V187.269C520.728 187.169 519.828 187.069 518.928 186.969V186.869C518.128 186.769 517.228 186.669 516.428 186.569L514.628 186.369L513.028 186.169C510.828 185.869 508.628 185.669 506.328 185.369C505.828 185.369 505.228 185.269 504.728 185.169L503.228 184.969L500.028 184.769C496.028 184.469 491.228 184.369 486.528 184.269C483.228 184.169 479.928 184.069 477.028 184.069C467.928 184.269 462.228 184.469 456.528 184.869C450.028 185.269 444.728 185.869 434.828 187.269C431.828 187.769 428.428 188.369 425.028 188.969L420.828 189.769C418.928 190.069 417.028 190.469 415.128 190.869L414.828 190.969L413.728 191.169L406.528 192.869L406.128 192.969L405.728 193.069L402.428 193.969C395.228 195.969 388.128 198.269 381.228 200.869L380.528 201.169C371.028 204.869 361.028 209.269 350.928 214.269L350.328 214.569L345.728 216.869C337.828 220.969 330.028 225.369 322.428 229.969L319.428 231.769L319.228 231.969L318.428 232.469C308.528 238.669 299.228 245.069 290.628 251.669L289.728 252.269L289.028 252.769C283.428 257.069 278.328 261.469 273.728 265.669L272.028 267.369L271.828 267.569L271.228 267.969C270.128 269.069 268.828 270.369 267.528 271.669C265.528 273.669 263.528 275.669 261.828 277.569L261.728 277.669L261.028 278.469C257.628 282.069 256.328 283.469 253.528 286.769C251.128 289.469 249.628 291.269 247.328 294.069C246.828 294.669 246.328 295.369 245.728 296.069C238.328 305.769 234.428 311.169 230.428 317.269C227.528 321.769 224.328 326.869 219.928 334.269C219.528 334.869 219.228 335.569 218.828 336.269C218.228 337.369 217.628 338.569 216.928 339.669L215.828 341.669C212.728 347.569 209.228 355.269 206.128 362.069L204.728 365.069C204.528 365.469 204.328 365.869 204.228 366.269C204.028 366.669 203.928 366.969 203.728 367.369C203.528 367.769 203.328 368.269 203.128 368.669L203.828 368.969C195.328 392.269 190.628 416.869 189.828 441.669C184.528 451.169 181.628 459.569 181.228 466.869L181.128 469.269V469.369L183.728 469.469V469.369C184.028 463.569 186.028 456.869 189.628 449.469C189.528 476.669 193.828 503.669 202.128 529.469C197.028 538.669 193.928 547.069 192.828 554.469C189.628 542.769 187.228 530.869 185.728 518.769L185.028 512.669L182.428 512.969C182.628 514.969 182.828 517.069 183.128 519.069L183.228 519.869C185.228 535.569 188.728 551.069 193.428 566.169C199.328 584.969 207.328 603.069 217.128 620.169C223.428 631.169 230.428 641.669 238.128 651.669L238.328 651.969L241.328 655.769V655.569C260.228 679.369 282.628 699.869 307.828 716.469ZM249.428 619.169C267.928 643.569 289.728 665.169 314.228 683.469C308.428 693.969 305.528 703.369 305.628 711.169C280.928 694.369 258.928 673.769 240.728 650.169C239.928 641.669 242.828 631.269 249.428 619.169ZM269.428 273.669C270.928 272.169 272.428 270.669 273.928 269.269C277.128 266.369 279.228 264.469 281.728 262.469C276.028 271.569 272.128 282.569 270.028 295.269C258.128 304.469 246.828 314.269 236.028 324.769C236.028 324.769 236.028 324.669 236.028 324.569C236.928 322.269 237.928 319.969 238.928 317.769C239.228 317.069 239.528 316.469 239.928 315.769C240.628 314.269 241.328 312.769 242.128 311.269C242.528 310.469 242.928 309.669 243.428 308.869C244.128 307.569 244.828 306.169 245.628 304.869C246.128 304.069 246.528 303.269 247.028 302.469C247.828 301.169 248.528 299.969 249.328 298.669L250.828 296.369C251.728 295.069 252.528 293.869 253.428 292.569C253.928 291.869 254.428 291.169 254.928 290.469C255.928 289.069 256.928 287.769 258.028 286.469C258.428 285.969 258.828 285.369 259.328 284.869C260.828 283.069 262.328 281.269 263.928 279.469L265.928 277.369C266.928 276.169 268.128 274.869 269.428 273.669ZM320.928 234.269C330.728 228.169 340.828 222.469 351.028 217.269C356.828 217.769 364.428 222.069 373.628 229.969C356.728 238.569 340.028 247.969 323.828 257.869L323.728 257.669C323.628 257.369 323.528 257.069 323.528 256.769L323.028 254.969C322.928 254.569 322.828 254.269 322.728 253.969C322.628 253.669 322.528 252.969 322.328 252.569C322.228 252.169 322.128 251.869 322.128 251.569C322.128 251.269 321.928 250.769 321.828 250.369C321.728 249.969 321.728 249.669 321.628 249.369C321.528 249.069 321.528 248.769 321.428 248.569C321.328 248.069 321.228 247.569 321.128 247.069L321.028 246.369C320.928 245.869 320.928 245.469 320.828 245.069C320.828 244.869 320.728 244.569 320.728 244.369C320.728 243.969 320.628 243.569 320.628 243.169C320.628 242.969 320.628 242.769 320.528 242.569C320.528 242.169 320.428 241.869 320.428 241.469C320.428 241.269 320.428 241.069 320.428 240.869C320.428 240.669 320.428 240.169 320.328 239.869C320.228 239.569 320.328 239.469 320.328 239.369C320.328 239.269 320.328 238.769 320.328 238.569V237.969C320.328 237.769 320.328 237.469 320.328 237.269C320.328 237.069 320.328 236.969 320.328 236.769L320.428 236.169C320.428 236.069 320.428 235.869 320.428 235.769C320.628 235.269 320.728 234.769 320.928 234.269ZM357.328 215.369L356.428 215.069L355.728 214.869C364.828 210.469 373.728 206.569 382.128 203.269C395.328 200.369 409.828 201.469 425.328 206.569C409.928 212.569 393.828 219.769 377.528 227.969C376.828 227.369 376.128 226.769 375.428 226.269L374.628 225.669C373.428 224.669 372.228 223.769 371.028 222.969L370.128 222.369C369.228 221.769 368.328 221.169 367.528 220.569L366.528 219.869C365.628 219.269 364.728 218.769 363.828 218.269L363.228 217.969C362.228 217.369 361.128 216.869 360.128 216.469C359.928 216.369 359.628 216.269 359.428 216.169C358.828 215.869 358.028 215.569 357.328 215.369ZM767.628 451.269C761.828 446.569 753.228 443.669 741.928 442.669C741.828 441.369 741.628 440.069 741.428 438.669C741.228 436.669 741.028 434.769 740.728 432.869C740.428 430.969 740.128 428.769 739.828 426.769C739.528 424.769 739.228 422.869 738.928 420.969C738.628 419.069 738.228 416.969 737.828 414.969C737.428 412.969 737.128 411.069 736.728 409.169C736.328 407.269 735.828 405.269 735.428 403.269C734.928 401.269 734.628 399.369 734.128 397.469C733.628 395.569 733.128 393.469 732.528 391.469C731.928 389.469 731.528 387.769 731.028 385.869C730.428 383.769 729.728 381.769 729.128 379.669C728.628 377.969 728.128 376.169 727.528 374.469C726.728 372.169 725.928 369.869 725.128 367.569C724.628 366.169 724.128 364.669 723.628 363.269C722.528 360.269 721.328 357.269 720.128 354.269C733.228 355.569 742.628 359.169 748.328 365.169C759.228 392.669 765.828 421.669 767.628 451.269ZM758.028 544.969C753.528 541.069 746.728 538.769 737.728 537.869C737.928 536.669 738.128 535.369 738.428 534.169C738.728 532.369 739.128 530.569 739.328 528.769C739.628 526.669 739.928 524.569 740.228 522.469C740.428 520.669 740.728 518.769 741.028 516.969C741.228 514.869 741.528 512.869 741.728 510.769C741.928 508.869 742.128 507.069 742.328 505.169C742.528 503.169 742.628 501.069 742.728 498.969C742.828 497.069 743.028 495.169 743.128 493.269C743.228 491.169 743.328 489.169 743.328 487.069C743.428 485.169 743.528 483.269 743.528 481.469C743.528 479.369 743.528 477.169 743.528 475.069C743.528 473.269 743.528 471.469 743.528 469.669C743.528 467.269 743.328 464.869 743.228 462.569C743.128 460.969 743.128 459.469 743.028 457.869C742.828 454.469 742.628 451.069 742.328 447.669C754.128 448.769 762.728 451.969 767.828 457.369C769.128 486.869 765.828 516.369 758.028 544.969ZM719.428 631.469C716.628 629.169 712.628 627.669 707.428 627.069C707.928 626.169 708.328 625.269 708.728 624.369C709.528 622.669 710.428 621.069 711.228 619.369C712.028 617.669 712.928 615.769 713.728 613.869C714.528 611.969 715.328 610.469 716.028 608.669C716.728 606.869 717.528 604.969 718.328 603.069C719.128 601.169 719.828 599.569 720.528 597.869C721.228 596.169 721.928 594.069 722.728 592.169C723.428 590.469 724.028 588.669 724.628 586.969C725.328 584.969 725.928 582.969 726.628 580.969C727.228 579.269 727.828 577.569 728.328 575.869C729.028 573.669 729.628 571.569 730.228 569.369C730.728 567.769 731.228 566.169 731.628 564.569C732.328 562.069 732.928 559.569 733.528 557.069C733.828 555.769 734.228 554.469 734.528 553.169C735.328 549.669 736.128 546.269 736.828 542.769C745.928 543.569 752.628 546.069 756.628 550.069C748.328 578.869 735.828 606.369 719.428 631.469ZM653.828 703.669C653.328 703.369 652.728 703.069 652.128 702.869C652.728 702.269 653.328 701.669 653.828 701.069C655.128 699.769 656.428 698.569 657.628 697.169C659.028 695.669 660.428 694.169 661.728 692.669C663.028 691.169 664.228 689.969 665.428 688.569C666.628 687.169 668.028 685.469 669.428 683.969C670.828 682.469 671.828 681.169 673.028 679.769C674.328 678.169 675.528 676.569 676.828 674.869C677.928 673.469 679.128 671.969 680.228 670.569C681.528 668.869 682.728 667.169 683.928 665.369C684.928 663.869 686.028 662.469 687.028 661.069C688.328 659.169 689.528 657.269 690.828 655.369C691.728 653.969 692.628 652.669 693.528 651.269C694.928 649.069 696.228 646.869 697.528 644.669C698.228 643.469 698.928 642.369 699.628 641.169C701.428 637.969 703.228 634.769 704.928 631.569C710.028 632.069 713.928 633.369 716.528 635.669C699.228 661.369 678.028 684.269 653.828 703.669ZM516.528 189.169C541.928 192.969 566.528 200.769 589.428 212.469H587.828C576.128 212.569 562.428 214.269 546.928 217.669C545.828 216.969 544.728 216.369 543.728 215.769C542.428 214.969 541.228 214.169 539.928 213.469C538.428 212.569 536.928 211.769 535.428 210.969C534.128 210.269 532.828 209.469 531.428 208.769C530.028 208.069 528.428 207.269 527.028 206.569C525.628 205.869 524.328 205.269 523.028 204.569C521.728 203.869 520.028 203.269 518.528 202.569C517.028 201.869 515.828 201.369 514.528 200.769C513.028 200.169 511.428 199.569 509.928 198.969C508.628 198.469 507.328 197.969 505.928 197.469C504.328 196.869 502.628 196.369 501.028 195.869C499.828 195.469 498.528 195.069 497.328 194.669C495.428 194.069 493.628 193.669 491.728 193.169C490.728 192.869 489.628 192.569 488.628 192.369C487.628 192.169 486.828 191.969 485.928 191.769C494.228 190.069 502.628 189.169 511.028 188.969C512.928 189.069 514.728 189.069 516.528 189.169ZM430.428 208.469C446.428 214.569 463.028 224.769 479.828 238.669C458.728 246.869 436.628 256.669 414.328 267.869C413.628 266.969 412.928 266.169 412.228 265.269C411.728 264.569 411.128 263.869 410.528 263.169C409.528 261.869 408.528 260.669 407.528 259.469C406.828 258.669 406.228 257.869 405.628 257.169C404.728 256.069 403.828 255.069 402.928 254.069L400.728 251.569C399.928 250.669 399.128 249.769 398.328 248.869L396.128 246.369C395.428 245.569 394.628 244.769 393.928 243.969C393.228 243.169 392.428 242.269 391.628 241.469C390.828 240.669 390.228 239.969 389.528 239.269C388.828 238.569 388.028 237.769 387.328 236.969C386.628 236.169 385.828 235.469 385.028 234.769C384.228 234.069 383.728 233.469 383.128 232.869C382.228 232.069 381.428 231.269 380.528 230.469C397.528 222.069 414.328 214.669 430.428 208.469ZM661.628 267.769C659.928 267.669 658.128 267.669 656.428 267.669C643.228 267.769 627.528 269.669 610.028 273.569C608.428 271.669 606.828 269.769 605.128 267.869L603.828 266.369C601.928 264.269 600.128 262.269 598.228 260.269C597.728 259.769 597.328 259.269 596.828 258.769C594.628 256.469 592.428 254.269 590.228 252.069L588.728 250.569C586.828 248.669 584.828 246.869 582.828 245.069L581.528 243.869C579.228 241.769 576.928 239.769 574.628 237.869L573.028 236.469L570.428 234.269C569.128 233.269 567.828 232.269 566.628 231.269L565.728 230.569C563.328 228.769 560.928 226.969 558.428 225.169C557.928 224.769 557.328 224.369 556.728 223.969C555.128 222.869 553.528 221.769 551.828 220.669C566.128 217.669 578.928 216.069 589.828 216.069C592.228 216.069 594.628 216.169 596.828 216.269C621.028 229.869 642.928 247.169 661.628 267.769ZM496.228 747.169C500.228 740.969 504.928 735.169 510.128 729.869C536.328 735.869 561.628 737.869 585.628 735.869C584.728 736.969 583.928 738.069 583.128 739.269C554.728 746.369 525.428 748.969 496.228 747.169ZM320.128 683.169C326.928 671.669 336.928 658.969 349.928 645.269C372.328 664.869 396.828 681.969 422.928 696.269C412.728 707.069 404.828 717.069 399.428 726.169C371.228 715.469 344.528 701.069 320.128 683.169ZM299.128 666.569C298.328 665.869 297.528 665.169 296.728 664.469C294.728 662.769 292.828 660.969 290.828 659.269C289.828 658.269 288.828 657.369 287.728 656.369C286.028 654.769 284.428 653.169 282.728 651.569C281.628 650.569 280.628 649.469 279.628 648.369C278.028 646.769 276.528 645.169 275.028 643.569C274.028 642.469 272.928 641.369 271.928 640.269C270.428 638.569 268.928 636.969 267.428 635.269C266.428 634.169 265.528 633.169 264.628 632.069C263.028 630.169 261.428 628.369 259.928 626.469C259.128 625.569 258.428 624.569 257.628 623.669C255.528 621.069 253.428 618.369 251.428 615.669C258.928 602.869 270.028 588.669 284.628 573.469C302.628 598.569 323.228 621.569 346.328 642.069C333.228 655.769 323.128 668.669 316.228 680.269C313.328 678.069 310.528 675.969 307.728 673.669C304.928 671.369 301.928 668.969 299.128 666.569ZM237.628 473.269C236.928 471.269 236.328 469.269 235.728 467.269C235.028 465.069 234.428 462.769 233.728 460.569C233.328 459.069 232.928 457.669 232.528 456.169C231.928 453.869 231.328 451.569 230.828 449.269C230.528 447.869 230.128 446.469 229.828 445.069C229.528 443.769 229.328 442.569 229.028 441.369C228.928 440.869 228.828 440.269 228.728 439.669C226.628 427.969 225.128 416.169 224.228 404.369C239.528 388.869 255.928 374.469 273.128 361.169C277.728 383.369 285.528 407.169 296.228 432.069C276.528 447.169 257.828 463.669 240.328 481.269C239.628 479.469 239.028 477.569 238.328 475.769C238.128 474.869 237.928 474.069 237.628 473.269ZM499.328 723.769C497.428 723.269 495.528 722.669 493.728 722.169C492.228 721.669 490.728 721.269 489.228 720.869C487.328 720.269 485.428 719.669 483.628 719.069C482.128 718.569 480.628 718.069 479.128 717.569C477.228 716.869 475.428 716.169 473.528 715.569C472.028 714.969 470.528 714.469 468.928 713.869C467.028 713.169 465.228 712.369 463.328 711.669C461.828 711.069 460.328 710.469 458.728 709.769C456.828 708.969 454.928 708.069 453.028 707.269C451.528 706.569 450.128 705.969 448.628 705.269C446.528 704.269 444.428 703.269 442.328 702.269C441.128 701.669 439.828 701.069 438.528 700.469C435.728 699.069 432.928 697.569 430.028 696.069C442.528 683.569 455.828 671.869 469.828 661.069C491.028 678.469 512.128 692.869 532.628 704.069C523.928 710.869 515.628 718.169 507.728 726.069C506.428 725.769 505.128 725.369 503.828 725.069C502.328 724.569 500.828 724.169 499.328 723.769ZM417.528 688.869C414.828 687.369 412.128 685.669 409.528 684.069L406.628 682.269C404.528 680.969 402.428 679.569 400.328 678.269C399.328 677.669 398.428 677.069 397.428 676.369C395.028 674.769 392.628 673.169 390.228 671.469L388.628 670.369C385.728 668.369 382.828 666.269 380.028 664.169L377.728 662.369C375.628 660.769 373.528 659.169 371.328 657.569L368.528 655.369C366.528 653.769 364.528 652.169 362.528 650.469L360.028 648.369C357.628 646.369 355.228 644.269 352.828 642.169C368.828 626.069 385.928 611.069 403.928 597.169C423.228 618.769 444.028 638.969 466.128 657.669C451.928 668.669 438.428 680.669 425.728 693.369C423.328 692.069 420.928 690.769 418.628 689.369L417.528 688.869ZM259.928 525.469C259.328 524.269 258.728 523.169 258.128 522.069C257.928 521.569 257.628 521.169 257.428 520.669C251.328 508.469 246.728 497.369 242.028 485.969C257.528 470.069 276.428 453.469 298.128 436.469C305.728 453.369 314.128 469.869 323.328 485.969C329.028 495.969 335.228 506.069 341.628 515.869C319.528 533.069 300.428 549.969 284.628 566.069C283.828 564.869 282.928 563.669 282.128 562.369C281.528 561.569 281.028 560.669 280.428 559.869C279.328 558.269 278.328 556.669 277.328 555.069C276.028 553.069 274.728 550.969 273.428 548.969C272.828 547.969 272.228 547.069 271.628 546.069C269.828 543.069 268.028 540.069 266.228 536.969C264.128 533.269 262.028 529.369 259.928 525.469ZM341.928 632.469C340.428 631.069 339.028 629.669 337.528 628.269C336.028 626.869 334.628 625.469 333.228 624.069C331.828 622.669 330.428 621.169 329.028 619.769C327.628 618.369 326.228 616.869 324.828 615.469C323.428 614.069 322.128 612.569 320.728 611.069C319.328 609.569 318.028 608.169 316.628 606.669C315.228 605.169 313.928 603.569 312.528 601.969C311.128 600.369 309.928 599.069 308.728 597.569C307.328 595.869 305.928 594.169 304.528 592.369C303.428 591.069 302.328 589.669 301.228 588.269C299.628 586.269 298.028 584.169 296.428 582.169C295.628 581.069 294.728 579.969 293.928 578.869C291.728 575.969 289.628 573.069 287.528 570.169C303.228 554.069 322.328 537.269 344.428 519.969C361.428 545.769 380.228 570.269 400.628 593.469C382.528 607.469 365.328 622.669 349.128 638.869L346.228 636.269C344.828 635.069 343.328 633.869 341.928 632.469ZM579.528 733.469C577.728 733.569 575.928 733.669 574.028 733.669C571.828 733.669 569.528 733.769 567.328 733.669C566.028 733.669 564.628 733.669 563.328 733.669C560.928 733.569 558.428 733.469 556.028 733.369C554.828 733.269 553.628 733.269 552.428 733.169C551.228 733.069 549.928 732.969 548.728 732.869L546.928 732.669C534.928 731.469 523.928 729.369 512.828 727.169C520.328 719.669 528.328 712.669 536.728 706.169C557.128 716.969 576.428 724.169 594.128 727.669C591.928 729.469 590.128 731.169 588.428 732.869C586.228 733.069 584.128 733.269 581.928 733.369C581.128 733.369 580.328 733.369 579.528 733.469ZM529.628 698.069C527.128 696.569 524.628 695.069 522.028 693.569C521.228 693.069 520.528 692.569 519.728 692.169C517.928 691.069 516.128 689.869 514.228 688.669C513.228 687.969 512.128 687.269 511.028 686.569C509.528 685.569 507.928 684.569 506.428 683.469C505.328 682.669 504.228 681.969 503.028 681.169C501.528 680.169 500.028 679.069 498.528 677.969L495.128 675.569C493.628 674.469 492.028 673.269 490.528 672.169C489.428 671.369 488.328 670.569 487.228 669.669C485.628 668.469 483.928 667.169 482.328 665.869L479.328 663.569C477.228 661.869 475.128 660.169 473.028 658.469L473.328 658.269C489.128 646.169 506.328 634.269 524.528 622.769C540.128 644.069 554.728 662.969 568.128 678.969C556.628 686.169 545.728 693.769 535.728 701.469L535.428 701.669C534.128 700.969 532.928 700.269 531.628 699.569L529.628 698.069ZM462.228 648.869C460.528 647.369 458.728 645.769 457.028 644.269C455.628 642.969 454.128 641.669 452.728 640.369C451.428 639.169 450.028 637.869 448.728 636.669C447.428 635.469 445.928 633.969 444.528 632.669C443.128 631.369 441.728 629.969 440.328 628.669C428.128 616.769 418.028 605.869 407.728 594.569L408.628 593.869C428.628 578.469 450.628 563.269 473.828 548.769C490.228 573.569 506.428 597.169 522.228 618.869C503.828 630.369 486.428 642.469 470.528 654.669L469.828 655.269C468.028 653.769 466.128 652.169 464.328 650.669L462.228 648.869ZM398.028 583.469C396.628 581.769 395.228 580.169 393.828 578.469C392.628 577.069 391.428 575.669 390.328 574.269C389.028 572.669 387.628 570.969 386.328 569.369C385.128 567.869 383.928 566.369 382.728 564.869C381.528 563.369 380.228 561.669 378.928 559.969C377.628 558.269 376.528 556.869 375.328 555.269C374.128 553.669 372.828 551.969 371.628 550.369C370.428 548.769 369.328 547.269 368.128 545.669C366.828 543.969 365.628 542.169 364.328 540.469C363.228 538.969 362.128 537.469 361.028 535.969C359.628 533.969 358.228 531.969 356.828 529.969C355.928 528.669 355.028 527.469 354.228 526.169C352.228 523.169 350.228 520.169 348.228 517.269L349.428 516.269C371.628 499.169 395.928 482.369 421.728 466.269C437.528 492.669 454.028 519.069 470.828 544.669C447.528 559.269 425.428 574.569 405.228 590.069L404.228 590.869C403.228 589.769 402.328 588.669 401.328 587.569C400.328 586.169 399.128 584.869 398.028 583.469ZM594.928 724.769C593.728 724.569 592.528 724.269 591.328 723.969C590.128 723.669 588.928 723.369 587.728 723.069C586.528 722.769 585.328 722.469 584.128 722.169C582.928 721.869 581.628 721.369 580.428 721.069C579.228 720.769 578.028 720.369 576.828 719.969C575.628 719.569 574.128 719.069 572.828 718.569C571.628 718.169 570.528 717.769 569.328 717.369C567.928 716.869 566.428 716.269 565.028 715.669C563.928 715.269 562.828 714.869 561.728 714.369C560.128 713.669 558.528 712.969 556.828 712.269C555.828 711.869 554.928 711.469 553.928 710.969C552.028 710.069 550.128 709.169 548.228 708.269C547.428 707.869 546.728 707.569 546.028 707.169C543.928 706.169 541.828 704.969 539.828 703.869C549.528 696.469 560.028 689.169 571.128 682.169C584.328 697.869 596.028 710.269 605.828 719.169C602.828 721.169 599.928 723.169 597.128 725.269C596.428 725.069 595.628 724.969 594.928 724.769ZM567.528 671.969C566.528 670.769 565.528 669.469 564.528 668.169C563.728 667.169 563.028 666.269 562.228 665.269C561.128 663.969 560.028 662.569 559.028 661.169C558.228 660.169 557.528 659.269 556.728 658.269C555.628 656.869 554.528 655.469 553.428 654.069L551.028 650.969C549.928 649.569 548.928 648.169 547.828 646.769C547.028 645.669 546.128 644.569 545.328 643.469L542.128 639.269L539.428 635.669C538.428 634.269 537.428 632.869 536.328 631.469L533.428 627.569C531.728 625.269 530.028 622.869 528.228 620.469C546.028 609.469 564.528 599.069 583.228 589.569C592.728 614.269 600.528 637.069 606.428 657.269C594.528 663.269 582.828 669.869 571.428 676.969L569.828 674.969L567.528 671.969ZM525.628 616.469L523.328 613.269L520.828 609.869L517.328 604.869C516.428 603.569 515.528 602.369 514.628 601.069C513.528 599.469 512.428 597.869 511.328 596.269C510.328 594.869 509.328 593.469 508.328 592.069L505.228 587.569L502.028 582.869L499.128 578.669L495.728 573.669C494.828 572.369 493.928 570.969 493.028 569.669L489.428 564.369C488.428 562.969 487.528 561.469 486.528 560.069L483.028 554.869L477.428 546.369C500.328 532.169 524.028 518.869 547.928 506.869C560.428 533.869 571.728 560.169 581.528 585.269C557.028 597.569 541.628 606.869 525.628 616.469ZM607.528 716.469L605.728 714.769C605.028 714.069 604.328 713.369 603.528 712.669L601.628 710.769L599.428 708.469L597.428 706.369C596.628 705.569 595.928 704.769 595.128 703.969C594.328 703.169 593.728 702.469 592.928 701.669C592.128 700.869 591.328 699.969 590.628 699.069C589.928 698.169 589.128 697.369 588.328 696.569C587.528 695.769 586.628 694.669 585.828 693.769C585.028 692.869 584.228 691.969 583.428 691.069L580.628 687.769C579.928 686.969 579.228 686.069 578.428 685.269C577.028 683.669 575.628 681.969 574.228 680.269C585.128 673.569 596.328 667.269 607.728 661.469C613.328 681.569 616.928 698.569 618.228 712.069C614.028 714.169 611.328 715.769 608.528 717.569L607.528 716.469ZM614.628 722.669L614.328 722.469L612.228 720.669L611.728 720.169L611.328 719.869C613.628 718.469 616.028 717.069 618.528 715.869C618.628 718.769 618.728 722.169 618.628 725.869C617.528 725.069 616.128 723.969 614.628 722.669ZM621.028 710.069C620.928 709.169 620.828 708.369 620.828 707.469C620.728 706.369 620.528 705.269 620.428 704.169C620.328 703.369 620.228 702.469 620.128 701.569C619.928 700.369 619.728 699.069 619.528 697.769C619.428 696.969 619.328 696.169 619.128 695.269C618.928 693.869 618.628 692.469 618.328 690.969C618.128 690.169 618.028 689.369 617.928 688.569C617.628 686.969 617.328 685.369 616.928 683.769C616.728 683.069 616.628 682.369 616.428 681.569C616.028 679.769 615.628 677.969 615.228 676.169C615.028 675.469 614.928 674.869 614.828 674.269C614.328 672.169 613.828 670.069 613.228 667.969C613.128 667.469 613.028 667.069 612.928 666.669C612.328 664.369 611.728 662.069 611.128 659.669C622.228 654.169 633.128 649.269 643.628 645.169C641.728 668.769 637.128 689.369 630.028 706.669C627.128 707.769 624.128 709.169 621.128 710.669C621.028 710.469 621.028 710.269 621.028 710.069ZM545.128 489.469C543.728 486.569 542.428 483.669 541.028 480.669C538.928 476.369 536.828 472.069 534.728 467.769C533.228 464.769 531.828 461.869 530.428 458.869C528.228 454.369 525.928 449.969 523.628 445.469C522.228 442.769 520.928 440.069 519.528 437.369C516.228 431.069 512.928 424.769 509.628 418.569L508.928 417.369C535.128 404.269 561.028 392.769 585.728 383.269C599.228 411.069 610.628 439.769 619.828 469.269C597.428 477.869 574.028 488.269 550.228 500.169C548.528 496.469 546.828 492.969 545.128 489.469ZM546.028 502.169C521.928 514.369 498.028 527.769 474.928 542.069C472.828 538.769 470.628 535.469 468.528 532.169C466.728 529.369 465.028 526.669 463.228 523.969C460.728 520.069 458.328 516.169 455.828 512.269C454.028 509.369 452.128 506.469 450.328 503.569C447.628 499.269 445.028 494.969 442.328 490.569C440.828 488.069 439.228 485.569 437.728 483.069C433.728 476.569 429.828 470.069 426.028 463.569C451.528 447.769 477.828 432.969 504.528 419.569C519.028 446.669 533.028 474.469 546.028 502.169ZM609.928 655.469C609.728 654.769 609.528 654.069 609.328 653.269L608.328 649.669C607.928 648.169 607.428 646.669 606.928 645.169C606.528 643.869 606.128 642.669 605.828 641.369C605.328 639.869 604.828 638.269 604.328 636.669C603.928 635.369 603.528 634.069 603.128 632.769C602.628 631.169 602.028 629.469 601.528 627.769C601.128 626.469 600.728 625.169 600.228 623.969C599.628 622.169 599.028 620.469 598.428 618.669C598.028 617.469 597.628 616.169 597.128 614.969C596.428 612.969 595.728 610.969 595.028 609.069C594.628 607.969 594.228 606.869 593.828 605.769C593.028 603.469 592.128 601.169 591.328 598.869C591.028 597.969 590.728 597.169 590.428 596.269C589.328 593.469 588.328 590.569 587.228 587.669C605.628 578.469 623.628 570.469 640.928 563.769C644.528 591.169 645.628 616.969 644.028 640.569C633.028 644.669 621.528 649.769 609.928 655.469ZM585.528 583.169C585.128 582.269 584.828 581.269 584.428 580.369L582.628 575.669C581.928 573.869 581.228 572.069 580.428 570.269L578.628 565.669C577.828 563.769 577.028 561.869 576.328 559.869L574.528 555.469C573.728 553.469 572.828 551.469 572.028 549.469L570.228 545.269L567.528 539.069C566.928 537.669 566.328 536.369 565.728 534.969C564.728 532.669 563.728 530.369 562.728 528.169C562.228 526.969 561.728 525.769 561.128 524.569C560.028 522.069 558.928 519.669 557.828 517.169C557.328 516.169 556.928 515.069 556.428 514.069C555.028 510.969 553.628 507.769 552.128 504.669C575.728 492.869 598.928 482.569 621.028 474.069C629.528 501.869 635.928 530.269 640.028 558.969C617.328 567.769 601.828 575.269 585.528 583.169ZM608.728 721.669C611.128 723.769 613.428 725.569 615.528 727.169C611.828 726.969 607.428 726.569 602.328 725.969C604.328 724.469 606.528 723.069 608.728 721.669ZM621.328 714.469C623.528 713.369 625.728 712.369 627.828 711.469C625.928 715.569 623.828 719.669 621.528 723.569C621.628 720.869 621.528 717.769 621.328 714.469ZM567.128 348.169C572.828 358.069 578.228 368.369 583.428 378.769C558.628 388.369 532.728 399.869 506.428 412.969C504.828 409.969 503.228 407.069 501.628 404.169C500.628 402.369 499.628 400.569 498.628 398.769C495.528 393.269 492.528 387.869 489.428 382.469C479.928 365.769 470.328 349.869 460.928 334.869C486.928 321.869 512.428 310.569 536.828 301.169C547.728 316.169 557.828 331.969 567.128 348.169ZM485.128 384.669C490.828 394.569 496.528 404.869 502.128 415.069C475.428 428.569 449.028 443.369 423.528 459.169C421.628 455.869 419.628 452.669 417.728 449.369C416.928 448.069 416.128 446.769 415.428 445.369C412.228 439.869 409.128 434.469 406.028 429.069C396.428 412.369 387.428 396.069 379.128 380.469C404.328 364.869 430.428 350.269 456.728 336.969C465.928 351.969 475.528 367.969 485.128 384.669ZM401.628 431.669C407.328 441.669 413.228 451.769 419.228 461.869C393.328 478.069 368.928 494.969 346.628 512.069L345.528 512.869C344.728 511.669 344.028 510.569 343.228 509.369L341.328 506.369L338.328 501.469C337.028 499.369 335.728 497.269 334.528 495.169C333.928 494.269 333.428 493.269 332.828 492.369C331.028 489.369 329.228 486.269 327.528 483.269C325.328 479.369 323.128 475.469 321.028 471.569L319.328 468.369C318.928 467.669 318.628 467.069 318.328 466.369C312.228 454.669 307.228 444.169 302.228 433.469L303.628 432.469C325.528 415.669 349.528 399.069 374.928 383.169C383.028 398.669 392.028 414.969 401.628 431.669ZM633.628 705.369L633.828 704.969C634.228 703.869 634.728 702.769 635.128 701.669C635.628 700.369 636.028 699.069 636.528 697.669C636.928 696.469 637.328 695.369 637.728 694.169C638.128 692.869 638.528 691.469 638.928 690.069C639.328 688.869 639.628 687.669 640.028 686.469C640.428 685.069 640.728 683.569 641.128 682.169C641.428 680.969 641.728 679.669 642.028 678.369C642.328 676.869 642.728 675.269 643.028 673.769C643.328 672.469 643.528 671.269 643.828 669.969C644.128 668.269 644.428 666.569 644.728 664.869C644.928 663.669 645.128 662.469 645.328 661.169C645.628 659.169 645.828 657.169 646.128 655.169C646.228 654.169 646.428 653.169 646.528 652.069C646.828 649.269 647.128 646.469 647.328 643.569C656.728 639.969 666.228 636.969 675.928 634.569C667.128 660.369 655.228 683.469 640.528 703.169C638.128 703.869 635.828 704.569 633.628 705.369ZM647.728 636.969C647.828 635.569 647.928 634.169 648.028 632.669C648.128 630.969 648.128 629.269 648.228 627.569C648.228 626.069 648.328 624.569 648.428 622.969C648.528 621.369 648.428 619.669 648.428 617.969C648.428 616.269 648.428 614.769 648.428 613.169C648.428 611.569 648.328 609.869 648.328 608.169C648.328 606.469 648.328 604.769 648.228 603.069C648.128 601.369 648.028 599.769 648.028 598.069C648.028 596.369 647.928 594.569 647.828 592.869C647.728 591.169 647.628 589.469 647.428 587.669C647.228 585.869 647.228 584.169 647.028 582.469C646.828 580.569 646.628 578.569 646.528 576.669C646.328 575.069 646.228 573.569 646.028 571.969C645.728 568.769 645.328 565.569 644.828 562.269C660.428 556.269 676.328 551.269 692.628 547.369C691.128 575.369 686.028 603.169 677.628 629.969C667.428 632.369 657.428 635.469 647.628 639.169C647.528 638.369 647.628 637.669 647.728 636.969ZM623.928 467.669C623.528 466.469 623.128 465.169 622.728 463.969C622.128 462.169 621.628 460.369 621.028 458.669C620.328 456.569 619.628 454.469 618.928 452.269C618.328 450.569 617.828 448.869 617.228 447.169C616.428 444.969 615.728 442.769 614.928 440.669C614.328 439.069 613.728 437.469 613.128 435.869C612.328 433.669 611.428 431.369 610.528 429.169C609.928 427.669 609.328 426.169 608.728 424.569C607.828 422.269 606.828 419.969 605.928 417.569C605.328 416.169 604.828 414.669 604.228 413.269C603.228 410.869 602.128 408.369 601.128 405.969C600.628 404.669 600.028 403.469 599.528 402.169C598.328 399.469 597.128 396.669 595.828 393.969C595.428 393.069 595.028 392.069 594.528 391.169C593.028 387.969 591.528 384.769 590.028 381.569C614.828 372.169 637.828 365.069 658.528 360.369C671.028 388.569 680.228 418.069 686.028 448.369C664.828 453.369 644.128 459.869 623.928 467.669ZM587.828 377.069L586.328 374.069L584.728 370.869C583.828 369.069 582.828 367.269 581.928 365.469C581.428 364.469 580.928 363.469 580.328 362.469C579.328 360.569 578.328 358.669 577.228 356.769C576.728 355.869 576.328 355.069 575.828 354.169C574.328 351.469 572.828 348.769 571.328 346.069C562.128 329.969 552.128 314.369 541.228 299.369C565.728 290.169 588.428 283.169 608.828 278.569C620.728 293.269 631.428 308.869 640.728 325.269C646.328 335.069 651.628 345.369 656.428 355.769C635.628 360.469 612.628 367.669 587.828 377.069ZM631.628 710.069C633.328 709.469 634.928 708.869 636.528 708.469C633.428 712.269 630.328 715.969 627.028 719.569C628.628 716.469 630.228 713.269 631.628 710.069ZM644.128 557.469C644.028 556.469 643.828 555.469 643.628 554.369C643.428 552.669 643.128 550.969 642.828 549.169C642.528 547.269 642.228 545.269 641.828 543.369C641.528 541.669 641.228 539.869 640.928 538.169C640.628 536.169 640.228 534.169 639.828 532.269C639.528 530.569 639.228 528.869 638.828 527.169C638.428 525.169 638.028 523.069 637.528 520.969C637.228 519.269 636.828 517.669 636.528 516.069C636.028 513.869 635.528 511.669 635.028 509.569C634.628 508.069 634.328 506.469 633.928 504.969C633.328 502.569 632.728 500.169 632.128 497.869C631.828 496.469 631.428 495.169 631.128 493.769C630.428 491.069 629.628 488.269 628.928 485.569C628.628 484.569 628.428 483.569 628.128 482.569C627.228 479.169 626.228 475.869 625.128 472.469C645.128 464.769 665.628 458.369 686.528 453.369C691.828 482.769 693.828 512.569 692.528 542.369C673.628 546.769 659.228 551.969 644.128 557.469ZM594.628 732.169C595.928 730.969 597.428 729.769 598.928 728.469C602.228 728.969 605.428 729.369 608.628 729.669C604.428 730.469 599.728 731.369 595.428 732.069L594.628 732.169ZM533.928 297.169C502.328 309.369 480.828 319.869 458.328 330.769C457.728 329.869 457.228 329.069 456.628 328.169L453.828 323.769C452.828 322.269 451.928 320.869 450.928 319.369C449.928 317.869 449.128 316.569 448.128 315.169C447.128 313.769 446.228 312.369 445.328 310.969C444.328 309.569 443.528 308.269 442.628 306.969C441.728 305.669 440.828 304.269 439.828 302.969C438.928 301.669 437.928 300.269 437.028 298.969C436.128 297.669 435.328 296.469 434.428 295.269C433.528 294.069 432.528 292.569 431.628 291.269C430.828 290.069 430.028 288.969 429.128 287.869C428.128 286.569 427.228 285.169 426.228 283.869C425.428 282.769 424.628 281.669 423.828 280.569L421.028 276.769C419.628 274.869 418.228 273.069 416.828 271.269C439.628 259.869 461.928 249.969 483.328 241.769C500.728 256.669 517.728 275.269 533.928 297.169ZM454.028 332.869C427.828 346.169 401.828 360.769 376.828 376.269C376.428 375.569 376.128 374.869 375.728 374.269C374.828 372.569 373.928 370.769 373.028 369.069C372.328 367.669 371.628 366.269 370.828 364.869L368.328 359.969C367.628 358.569 366.828 357.169 366.128 355.769C365.428 354.369 364.528 352.669 363.828 351.169L361.628 346.769C360.928 345.369 360.228 343.969 359.528 342.569C358.728 340.969 358.028 339.369 357.228 337.869L355.428 334.269C354.528 332.469 353.728 330.769 352.928 328.969L351.528 326.069C350.628 324.169 349.728 322.269 348.828 320.369C348.528 319.669 348.128 318.869 347.828 318.169C346.828 315.969 345.828 313.669 344.828 311.569C366.928 297.869 389.828 285.069 412.928 273.369C425.828 290.269 439.628 310.269 454.028 332.869ZM372.528 378.869C339.028 399.869 320.828 413.469 300.128 429.069C299.728 428.269 299.428 427.469 299.028 426.569C298.328 424.969 297.628 423.369 297.028 421.769C296.428 420.169 295.728 418.569 295.028 416.869C294.328 415.169 293.728 413.669 293.128 412.069C292.528 410.469 291.928 408.869 291.328 407.269C290.728 405.669 290.128 404.069 289.528 402.469C288.928 400.869 288.428 399.369 287.928 397.869C287.428 396.369 286.828 394.669 286.328 393.169C285.828 391.569 285.328 390.069 284.828 388.569C284.328 387.069 283.828 385.469 283.328 383.969C282.828 382.469 282.428 380.869 282.028 379.269C281.628 377.669 281.128 376.369 280.828 374.969C280.328 373.169 279.928 371.469 279.528 369.769C279.228 368.569 278.928 367.369 278.628 366.169C278.028 363.469 277.428 360.869 276.828 358.269L278.128 357.269C297.328 342.469 318.328 327.969 340.528 314.069C349.328 333.369 360.028 355.169 372.528 378.869ZM591.328 735.269C592.528 735.069 593.728 734.969 594.928 734.769L596.928 734.469C597.828 734.369 598.828 734.269 599.728 734.069L600.528 733.969C596.728 735.269 592.928 736.469 589.328 737.569C589.928 736.869 590.628 736.069 591.328 735.269ZM546.828 221.869C567.928 235.569 587.728 253.269 605.628 274.469C582.728 279.969 560.328 286.969 538.428 295.469C537.728 294.569 537.128 293.669 536.428 292.869C535.328 291.469 534.228 289.969 533.228 288.569C532.128 287.169 531.028 285.869 530.028 284.469C528.928 283.069 527.828 281.669 526.728 280.369C525.628 279.069 524.528 277.769 523.428 276.469C522.328 275.169 521.228 273.769 520.128 272.469C519.028 271.169 517.928 269.969 516.828 268.769C515.728 267.569 514.628 266.269 513.428 264.969C512.328 263.769 511.228 262.569 510.028 261.369C508.828 260.169 507.828 258.969 506.728 257.769C505.628 256.569 504.328 255.369 503.228 254.269C502.128 253.169 501.028 252.069 500.028 251.069C498.728 249.769 497.328 248.569 496.028 247.269C495.128 246.369 494.128 245.469 493.228 244.669C491.528 243.069 489.728 241.569 488.028 240.069C507.028 232.669 526.728 226.569 546.828 221.869ZM641.028 707.269C642.128 707.069 643.228 706.869 644.228 706.769C640.828 709.969 637.328 713.069 633.728 716.169C636.128 713.169 638.628 710.269 641.028 707.269ZM644.428 702.669L644.928 701.869C645.828 700.569 646.728 699.369 647.628 698.069C648.528 696.769 649.528 695.169 650.528 693.769C651.528 692.369 652.328 691.069 653.128 689.769C653.928 688.469 654.928 686.769 655.828 685.369C656.728 683.969 657.528 682.569 658.328 681.169C659.128 679.769 660.028 678.069 660.828 676.569C661.628 675.069 662.428 673.669 663.228 672.269C664.028 670.869 664.828 669.069 665.628 667.369C666.328 665.869 667.128 664.469 667.828 662.969C668.628 661.269 669.428 659.469 670.228 657.669C670.828 656.269 671.528 654.869 672.128 653.369C673.028 651.369 673.828 649.269 674.628 647.169C675.128 645.969 675.628 644.769 676.128 643.469C677.328 640.369 678.428 637.169 679.528 633.969C686.228 632.469 693.028 631.569 699.928 631.369C700.528 631.369 701.028 631.369 701.528 631.369C687.628 657.569 669.828 681.469 648.728 702.269C647.328 702.269 645.828 702.369 644.428 702.669ZM681.228 629.069C681.428 628.269 681.728 627.469 681.928 626.769C682.428 625.169 682.928 623.669 683.428 622.069C683.928 620.269 684.428 618.369 684.928 616.469C685.428 614.869 685.828 613.269 686.228 611.569C686.728 609.769 687.128 607.869 687.528 605.969C687.928 604.269 688.328 602.669 688.728 600.969C689.128 599.069 689.528 597.169 689.928 595.269C690.228 593.569 690.628 591.869 690.928 590.169C691.328 588.169 691.628 586.269 691.928 584.269C692.228 582.569 692.528 580.869 692.828 579.169C693.128 577.069 693.428 574.969 693.728 572.969C693.928 571.369 694.228 569.669 694.428 568.069C694.728 565.669 694.928 563.369 695.228 560.969C695.328 559.569 695.528 558.169 695.628 556.769C695.928 553.269 696.228 549.869 696.428 546.369C708.828 543.669 719.828 542.269 729.128 542.269C730.628 542.269 732.128 542.269 733.528 542.369C727.728 571.669 717.828 600.069 704.128 626.669C703.128 626.669 702.128 626.569 701.028 626.569C694.328 626.869 687.628 627.669 681.228 629.069ZM696.628 541.469C696.628 540.369 696.728 539.369 696.728 538.269C696.828 536.369 696.928 534.569 696.928 532.669C696.928 530.769 697.028 528.669 697.028 526.769C697.028 524.869 697.128 522.969 697.028 521.069C696.928 519.169 696.928 517.169 696.928 515.169C696.928 513.169 696.828 511.369 696.828 509.369C696.828 507.369 696.628 505.469 696.528 503.469C696.428 501.469 696.328 499.669 696.228 497.669C696.128 495.669 695.928 493.669 695.728 491.669C695.528 489.669 695.428 487.869 695.228 485.969C695.028 483.869 694.828 481.669 694.528 479.569C694.328 477.769 694.228 476.069 693.928 474.369C693.628 471.769 693.228 469.169 692.828 466.469C692.628 465.169 692.528 463.969 692.328 462.669C691.828 459.169 691.228 455.669 690.628 452.269C706.328 448.869 720.228 447.169 732.028 447.069C734.228 447.069 736.328 447.069 738.428 447.269C741.128 477.369 739.628 507.769 734.128 537.469C720.928 536.969 709.028 539.069 696.628 541.469ZM689.928 447.469C689.728 446.369 689.428 445.269 689.228 444.069C688.828 441.969 688.428 439.969 688.028 437.869C687.628 435.769 687.228 434.069 686.728 432.169C686.228 430.169 685.828 428.069 685.328 426.069C684.828 424.169 684.328 422.269 683.828 420.469C683.328 418.469 682.828 416.369 682.228 414.369C681.628 412.369 681.128 410.669 680.628 408.769C680.128 406.869 679.528 404.769 678.828 402.769C678.128 400.769 677.628 398.969 677.028 397.169C676.428 395.369 675.828 393.269 675.128 391.369C674.428 389.469 673.728 387.469 673.028 385.569C672.328 383.669 671.728 381.869 671.028 380.069C670.228 377.869 669.328 375.769 668.528 373.569C667.928 371.969 667.328 370.469 666.728 368.869C665.428 365.669 664.028 362.569 662.728 359.369C680.028 355.669 695.428 353.669 708.428 353.669C711.028 353.669 713.628 353.769 716.028 353.869C727.628 382.169 735.128 411.969 738.228 442.369C736.228 442.269 734.128 442.269 732.028 442.269C720.028 442.269 705.828 444.069 689.928 447.469ZM660.628 354.769C660.128 353.769 659.728 352.769 659.228 351.869C658.728 350.669 658.128 349.569 657.628 348.369C656.728 346.569 655.828 344.769 655.028 342.969C654.528 341.969 654.028 340.969 653.528 339.869C652.528 337.869 651.528 335.969 650.528 334.069C650.128 333.269 649.628 332.369 649.228 331.569C647.728 328.869 646.228 326.069 644.728 323.369C635.528 307.269 625.028 291.869 613.428 277.369C630.228 273.769 645.328 271.869 658.028 271.869C660.728 271.869 663.328 271.969 665.728 272.069C678.328 286.469 689.528 302.169 699.028 318.869C704.528 328.569 709.628 338.669 714.028 348.969C711.928 348.869 709.828 348.869 707.628 348.869C694.128 348.969 678.328 350.969 660.628 354.769ZM410.128 269.969C387.328 281.469 364.728 294.169 342.928 307.669L342.028 305.769C341.528 304.669 341.028 303.669 340.628 302.569C340.028 301.269 339.528 300.069 339.028 298.769C338.528 297.669 338.128 296.569 337.628 295.569C337.128 294.569 336.628 293.269 336.228 292.069C335.828 290.969 335.328 289.969 334.928 288.869C334.528 287.769 334.028 286.669 333.628 285.569C333.228 284.469 332.828 283.569 332.428 282.569C332.028 281.569 331.628 280.369 331.228 279.269C330.828 278.369 330.528 277.469 330.228 276.569C329.828 275.369 329.428 274.269 329.028 273.169C328.728 272.369 328.428 271.669 328.228 270.869C327.728 269.569 327.328 268.269 326.928 267.069C326.728 266.569 326.528 265.969 326.428 265.469C325.928 264.069 325.528 262.669 325.128 261.369C341.928 250.969 359.228 241.269 376.728 232.469C386.428 241.469 397.728 254.069 410.128 269.969ZM338.928 310.069C316.628 324.069 295.528 338.569 276.328 353.469L276.128 353.669L275.828 352.069C275.628 350.769 275.328 349.569 275.128 348.269C274.928 346.769 274.628 345.369 274.428 343.869C274.228 342.569 274.028 341.369 273.828 340.069C273.628 338.669 273.528 337.269 273.328 335.869C273.228 334.669 273.028 333.369 272.928 332.169C272.828 330.769 272.728 329.369 272.628 327.969C272.528 326.769 272.428 325.669 272.428 324.469C272.328 323.069 272.328 321.669 272.328 320.269C272.328 319.169 272.228 318.169 272.228 317.069C272.228 315.569 272.228 314.169 272.228 312.769C272.228 311.869 272.228 310.869 272.228 309.969C272.328 308.369 272.428 306.769 272.528 305.169C272.528 304.469 272.628 303.769 272.628 303.069C272.828 300.969 273.028 298.969 273.328 296.969L274.328 296.169C288.828 285.069 304.628 274.169 321.328 263.669C325.028 276.269 330.928 291.869 338.928 310.069ZM272.228 356.669C255.328 369.769 239.228 383.869 224.028 398.969C224.028 398.569 224.028 398.169 224.028 397.869C224.028 396.469 223.928 394.969 223.928 393.569C223.928 391.869 223.928 390.169 224.028 388.469C224.028 387.069 224.028 385.569 224.128 384.169C224.228 382.469 224.328 380.869 224.428 379.269C224.528 377.869 224.528 376.469 224.728 375.069C224.828 373.469 225.028 371.869 225.228 370.269C225.328 368.869 225.528 367.469 225.728 366.069C225.928 364.469 226.228 362.869 226.428 361.269C226.628 359.969 226.828 358.569 227.028 357.269C227.328 355.569 227.628 353.969 228.028 352.369C228.328 351.169 228.528 349.869 228.828 348.669C229.228 346.869 229.728 345.069 230.228 343.269C230.528 342.269 230.728 341.269 231.028 340.269C231.828 337.569 232.628 334.969 233.528 332.369C244.828 320.969 256.828 310.269 269.528 300.369C267.328 316.769 268.228 335.769 272.228 356.669ZM238.928 489.369C245.528 506.769 253.528 523.569 262.728 539.669C268.528 549.669 274.828 559.669 281.528 569.369C267.028 584.569 255.828 598.669 248.228 611.569C241.628 602.469 235.428 592.969 229.828 583.169C220.328 566.569 212.428 549.069 206.328 530.969C213.728 518.269 224.628 504.369 238.928 489.369ZM404.128 727.969C409.428 719.069 417.128 709.269 427.328 698.669C451.928 711.769 478.028 721.869 505.028 728.669C499.728 734.169 494.928 740.269 490.928 746.769C461.328 744.569 432.128 738.169 404.128 727.969ZM478.628 193.369C500.128 197.669 521.428 206.269 542.028 218.869C522.428 223.669 503.128 229.669 484.328 236.969C483.128 235.969 481.828 234.869 480.628 233.869L480.028 233.369C479.128 232.669 478.228 231.969 477.328 231.269C476.028 230.269 474.828 229.269 473.528 228.369C472.628 227.669 471.628 226.969 470.728 226.369C469.528 225.469 468.228 224.569 467.028 223.769C466.028 223.169 465.128 222.469 464.128 221.869C462.928 221.069 461.728 220.269 460.528 219.469C459.528 218.869 458.628 218.269 457.728 217.669C456.528 216.969 455.328 216.169 454.028 215.569C453.128 215.069 452.228 214.469 451.228 213.969C449.928 213.269 448.728 212.669 447.428 211.969C446.528 211.469 445.728 211.069 444.828 210.669C443.428 209.969 442.028 209.369 440.628 208.769C439.928 208.469 439.228 208.069 438.428 207.769C437.428 207.269 436.428 206.969 435.328 206.569C449.528 201.269 463.928 196.769 478.628 193.369ZM586.928 741.169C589.828 740.369 592.728 739.569 595.628 738.669C592.528 739.969 589.428 741.269 586.328 742.469C586.528 741.969 586.728 741.569 586.928 741.169ZM648.228 706.669C648.728 706.769 649.128 706.869 649.528 706.969C646.728 709.069 643.928 711.169 641.128 713.169C643.628 711.069 645.928 708.869 648.228 706.669ZM209.428 362.269C213.828 354.769 220.128 346.369 228.328 337.469C222.128 358.569 219.428 380.569 220.428 402.569C208.928 414.569 199.728 425.869 193.228 436.269C194.528 410.869 199.928 385.869 209.428 362.269ZM192.828 443.869C199.128 433.069 208.428 421.069 220.728 408.069C222.228 432.969 227.728 458.669 237.128 484.569C223.028 499.269 212.128 512.969 204.628 525.469C196.328 499.069 192.328 471.469 192.828 443.869ZM318.328 686.469C342.828 704.269 369.528 718.669 397.828 729.369C393.328 737.669 391.128 744.969 391.228 751.169C362.528 742.969 335.328 730.569 310.328 714.269C309.728 706.669 312.328 697.269 318.328 686.469ZM402.428 731.069C430.428 741.269 459.628 747.569 489.328 749.869C486.828 754.769 485.528 759.169 485.628 762.869C455.428 763.869 425.328 760.369 396.128 752.569C395.828 746.569 397.828 739.369 402.428 731.069ZM494.428 750.169C523.728 751.969 553.028 749.469 581.528 742.569C581.328 743.169 581.228 743.769 581.128 744.469C552.028 755.069 521.428 761.269 490.528 762.669C490.528 759.169 491.828 754.969 494.428 750.169ZM718.028 349.269C717.528 348.169 717.028 347.069 716.528 345.969C716.028 344.869 715.528 343.669 715.028 342.569C714.228 340.769 713.328 338.969 712.528 337.169C712.028 336.169 711.528 335.069 711.028 334.069C710.028 332.169 709.028 330.169 708.028 328.269C707.628 327.469 707.128 326.569 706.728 325.769C705.228 323.069 703.728 320.269 702.228 317.669C693.128 301.669 682.428 286.569 670.428 272.569C682.828 273.969 691.828 277.569 697.328 283.469L697.628 283.769L700.428 286.969C712.228 300.469 722.628 315.169 731.528 330.769C736.428 339.369 740.928 348.269 744.928 357.469C738.628 352.969 729.628 350.269 718.028 349.269ZM320.328 260.169C303.928 270.469 288.428 281.169 274.228 291.969C274.328 291.569 274.328 291.269 274.428 290.869C274.528 290.169 274.728 289.369 274.928 288.669C275.228 287.469 275.428 286.169 275.828 284.969C276.028 284.269 276.228 283.569 276.328 282.869C276.728 281.569 277.028 280.369 277.428 279.169C277.628 278.569 277.828 277.969 277.928 277.469C278.528 275.769 279.128 274.069 279.828 272.369C279.928 272.169 279.928 272.069 280.028 271.869C280.628 270.369 281.328 268.969 282.028 267.569C282.328 267.069 282.628 266.569 282.828 266.069C283.328 265.069 283.928 264.069 284.528 263.069C284.828 262.569 285.228 261.969 285.528 261.469C286.128 260.569 286.728 259.669 287.328 258.869C287.728 258.369 288.028 257.869 288.428 257.369C289.228 256.369 290.028 255.469 290.828 254.569L291.428 254.069C299.328 248.069 307.828 242.069 316.828 236.369C316.428 241.869 317.528 249.769 320.328 260.169ZM196.028 564.969C195.228 556.769 197.928 546.669 204.128 535.069C210.128 552.569 217.828 569.469 227.028 585.469C232.828 595.669 239.328 605.569 246.228 614.969C240.028 626.169 236.728 636.069 236.528 644.569C230.328 636.169 224.628 627.369 219.428 618.269C209.728 601.369 201.928 583.469 196.028 564.969ZM486.428 186.769C489.128 186.869 491.828 186.969 494.528 187.169C489.328 187.869 483.828 188.769 478.028 190.069C477.428 189.969 476.828 189.869 476.128 189.769C473.628 189.369 471.128 188.969 468.628 188.669C467.628 188.569 466.628 188.369 465.628 188.269C462.728 187.969 459.928 187.669 457.028 187.569C456.628 187.569 456.328 187.469 455.928 187.469L456.728 187.369C461.828 187.069 467.628 186.869 477.028 186.569L482.528 186.669L486.428 186.769ZM470.328 191.869C456.828 195.369 443.428 199.669 430.428 204.669C429.528 204.369 428.528 204.069 427.628 203.769C426.728 203.469 425.728 203.169 424.728 202.869L424.028 202.669C423.328 202.469 422.728 202.369 422.028 202.169C420.528 201.769 419.028 201.369 417.528 201.069C416.528 200.869 415.628 200.669 414.628 200.469C413.228 200.169 411.928 199.969 410.628 199.769C409.628 199.569 408.528 199.469 407.528 199.369C406.328 199.269 405.028 199.169 403.828 199.069C402.628 198.969 401.628 198.969 400.528 198.869C399.428 198.869 398.328 198.869 397.228 198.869C396.428 198.869 395.728 198.869 394.928 198.869C398.228 197.769 401.728 196.769 406.328 195.569L415.328 193.469C433.428 189.569 452.028 189.069 470.328 191.869ZM230.728 330.069C225.828 335.169 221.128 340.569 216.728 346.169C217.628 344.369 218.628 342.469 219.528 340.669C220.428 339.069 221.228 337.469 222.128 335.869C226.628 328.369 229.728 323.369 232.628 318.869C235.328 314.869 237.728 311.369 240.828 307.169C236.828 314.469 233.428 322.169 230.728 330.069Z" fill="white"/>
</svg>
