<svg width="33" height="36" viewBox="0 0 33 36" fill="none" xmlns="http://www.w3.org/2000/svg">
<path d="M4.59053 2.35059H1.61279V4.17717H4.59053V2.35059Z" fill="black"/>
<path d="M3.10196 26.7849C2.20168 26.7849 1.46924 27.5174 1.46924 28.4171C1.46924 29.3169 2.20168 30.0493 3.10196 30.0493C4.00174 30.0493 4.73418 29.3169 4.73418 28.4171C4.73418 27.5174 4.00174 26.7849 3.10196 26.7849ZM3.10196 29.4538C2.53029 29.4538 2.06481 28.9888 2.06481 28.4171C2.06481 27.8455 2.53029 27.3805 3.10196 27.3805C3.67364 27.3805 4.13861 27.8455 4.13861 28.4171C4.13861 28.9888 3.67364 29.4538 3.10196 29.4538Z" fill="black"/>
<path d="M31.1589 32.6871H1.9161C0.929255 32.6871 0.129395 31.8873 0.129395 30.9004V33.2883C0.129395 34.2752 0.929154 35.075 1.9161 35.075H31.1589C32.1458 35.075 32.9456 34.2753 32.9456 33.2883V30.9004C32.9456 31.8872 32.1459 32.6871 31.1589 32.6871Z" fill="black"/>
<path d="M16.536 3.05396C9.38627 3.05396 3.58984 8.85039 3.58984 16.0001C3.58984 23.1499 9.38627 28.9463 16.536 28.9463C23.6858 28.9463 29.4822 23.1499 29.4822 16.0001C29.4822 8.85039 23.6858 3.05396 16.536 3.05396ZM16.536 21.6168C13.4344 21.6168 10.9195 19.1024 10.9195 16.0002C10.9195 12.8986 13.4339 10.3837 16.536 10.3837C19.6377 10.3837 22.1526 12.8981 22.1526 16.0002C22.152 19.1018 19.6377 21.6168 16.536 21.6168Z" fill="black"/>
<path d="M16.5362 15.105C16.0418 15.105 15.6411 15.5057 15.6411 16.0001C15.6411 16.4945 16.0418 16.8952 16.5362 16.8952C17.0308 16.8952 17.4314 16.4945 17.4314 16.0001C17.4314 15.5057 17.0302 15.105 16.5362 15.105Z" fill="black"/>
<path d="M29.6703 2.05298C28.77 2.05298 28.0376 2.78542 28.0376 3.6857C28.0376 4.58548 28.77 5.31792 29.6703 5.31792C30.5701 5.31792 31.3025 4.58548 31.3025 3.6857C31.3025 2.78491 30.5701 2.05298 29.6703 2.05298ZM29.6703 4.72185C29.0986 4.72185 28.6332 4.25687 28.6332 3.6852C28.6332 3.11352 29.0986 2.64804 29.6703 2.64804C30.242 2.64804 30.707 3.11352 30.707 3.6852C30.707 4.25697 30.242 4.72185 29.6703 4.72185Z" fill="black"/>
<path d="M31.1589 27.9253H28.1812V29.7519H31.1589V27.9253Z" fill="black"/>
<path d="M31.1589 0H1.9161C0.929255 0 0.129395 0.799759 0.129395 1.7867V29.9986C0.129395 30.9854 0.929154 31.7853 1.9161 31.7853H31.1589C32.1458 31.7853 32.9456 30.9855 32.9456 29.9986V1.7867C32.9456 0.799759 32.1459 0 31.1589 0ZM31.1589 31.1897H1.9161C1.25938 31.1897 0.724962 30.6553 0.724962 29.9986V1.7867C0.724962 1.12999 1.25938 0.595567 1.9161 0.595567H31.1589C31.8156 0.595567 32.3501 1.12999 32.3501 1.7867V29.9986C32.3501 30.6553 31.8156 31.1897 31.1589 31.1897Z" fill="black"/>
</svg>
