<svg width="74" height="74" viewBox="0 0 74 74" fill="none" xmlns="http://www.w3.org/2000/svg">
<path d="M37.7158 19.6731C43.4247 19.6731 44.101 19.695 46.3553 19.7978C48.4396 19.8931 49.5722 20.2411 50.3252 20.5344C51.3229 20.9222 52.0355 21.3854 52.7837 22.1336C53.5319 22.8818 53.9951 23.5937 54.3829 24.5921C54.6755 25.3458 55.0242 26.4777 55.1195 28.562C55.2223 30.817 55.2442 31.4926 55.2442 37.2015C55.2442 42.9105 55.2223 43.5868 55.1195 45.841C55.0242 47.9254 54.6762 49.058 54.3829 49.811C53.9951 50.8086 53.5319 51.5212 52.7837 52.2694C52.0355 53.0176 51.3235 53.4808 50.3252 53.8686C49.5715 54.1612 48.4396 54.51 46.3553 54.6045C44.101 54.7073 43.4247 54.7292 37.7158 54.7292C32.0068 54.7292 31.3305 54.7073 29.0763 54.6045C26.9919 54.5093 25.86 54.1612 25.1063 53.8686C24.108 53.4808 23.3961 53.0176 22.6479 52.2694C21.8996 51.5212 21.4365 50.8086 21.0486 49.811C20.7561 49.0573 20.4073 47.9254 20.3121 45.841C20.2093 43.5868 20.1874 42.9105 20.1874 37.2015C20.1874 31.4926 20.2093 30.8163 20.3121 28.562C20.4073 26.4777 20.7554 25.3451 21.0486 24.5921C21.4365 23.5944 21.8996 22.8818 22.6479 22.1336C23.3961 21.3854 24.108 20.9222 25.1063 20.5344C25.86 20.2418 26.9919 19.8931 29.0763 19.7978C31.3312 19.6943 32.0075 19.6731 37.7158 19.6731ZM37.7158 15.8203C31.9095 15.8203 31.1812 15.845 28.9009 15.9491C26.6254 16.0533 25.0707 16.4144 23.7113 16.9426C22.3053 17.4887 21.113 18.2198 19.9243 19.4086C18.7355 20.5974 18.0044 21.7896 17.4583 23.1956C16.93 24.5557 16.5682 26.1097 16.4648 28.3859C16.3606 30.6662 16.3359 31.3946 16.3359 37.2008C16.3359 43.0078 16.3606 43.7354 16.4648 46.0157C16.5689 48.2912 16.93 49.8459 17.4583 51.2053C18.0044 52.6113 18.7355 53.8036 19.9243 54.9924C21.113 56.1811 22.3053 56.9122 23.7113 57.4583C25.0714 57.9866 26.6254 58.3484 28.9009 58.4519C31.1812 58.556 31.9095 58.5807 37.7158 58.5807C43.522 58.5807 44.2504 58.556 46.5307 58.4519C48.8062 58.3477 50.3609 57.9866 51.7203 57.4583C53.1263 56.9122 54.3185 56.1811 55.5073 54.9924C56.6961 53.8036 57.4272 52.6113 57.9733 51.2053C58.5022 49.8452 58.8633 48.2912 58.9668 46.0157C59.0709 43.7354 59.0956 43.0071 59.0956 37.2008C59.0956 31.3946 59.0709 30.6662 58.9668 28.3859C58.8626 26.1104 58.5015 24.5557 57.9733 23.1956C57.4272 21.7896 56.6961 20.5974 55.5073 19.4086C54.3185 18.2198 53.1263 17.4887 51.7203 16.9426C50.3602 16.4144 48.8062 16.0526 46.5307 15.9491C44.2511 15.845 43.5227 15.8203 37.7158 15.8203Z" fill="#090909"/>
<path d="M37.716 26.2222C31.6528 26.2222 26.7373 31.1377 26.7373 37.2009C26.7373 43.2648 31.6528 48.1803 37.716 48.1803C43.7792 48.1803 48.6954 43.2648 48.6954 37.2009C48.6954 31.1377 43.7799 26.2222 37.716 26.2222ZM37.716 44.3282C33.7796 44.3282 30.5894 41.1373 30.5894 37.2016C30.5894 33.2659 33.7803 30.075 37.716 30.075C41.6517 30.075 44.8426 33.2659 44.8426 37.2016C44.8426 41.1373 41.6524 44.3282 37.716 44.3282Z" fill="#090909"/>
<path d="M51.6948 25.7884C51.6948 27.2054 50.5465 28.3544 49.1288 28.3544C47.7118 28.3544 46.5635 27.2054 46.5635 25.7884C46.5635 24.3715 47.7125 23.2224 49.1288 23.2224C50.5458 23.2224 51.6948 24.3715 51.6948 25.7884Z" fill="#090909"/>
</svg>
