<svg width="46" height="46" viewBox="0 0 46 46" fill="none" xmlns="http://www.w3.org/2000/svg">
<g id="Group">
<g id="Group_2">
<g id="Group_3">
<path id="Vector" d="M14.9187 18.5842H8.98535V37.7531H14.9187V18.5842Z" stroke="#090909" stroke-width="1.5" stroke-miterlimit="10"/>
<path id="Vector_2" d="M11.9233 16.0742C13.8613 16.0742 15.4317 14.4892 15.4317 12.5365C15.4317 10.5838 13.8613 9 11.9233 9C9.98538 9 8.41504 10.5838 8.41504 12.5365C8.41504 14.4892 9.98538 16.0742 11.9233 16.0742Z" stroke="#090909" stroke-width="1.5" stroke-miterlimit="10"/>
</g>
<path id="Vector_3" d="M24.4033 27.6909C24.4033 24.9963 25.6434 23.3904 28.0188 23.3904C30.2006 23.3904 31.2489 24.9313 31.2489 27.6909C31.2489 30.4517 31.2489 37.7532 31.2489 37.7532H37.1547C37.1547 37.7532 37.1547 30.7507 37.1547 25.6163C37.1547 20.4819 34.2444 17.9993 30.1804 17.9993C26.1145 17.9993 24.4039 21.1663 24.4039 21.1663V18.5844H18.7119V37.7532H24.4033C24.4033 37.7532 24.4033 30.6435 24.4033 27.6909Z" stroke="#090909" stroke-width="1.5" stroke-miterlimit="10"/>
</g>
<path id="Vector_4" d="M42.6369 44H3.36311C2.61014 44 2 43.3899 2 42.6369V3.36311C2 2.61014 2.61014 2 3.36311 2H42.6374C43.3899 2 44 2.61014 44 3.36311V42.6369C44 43.3899 43.3899 44 42.6369 44Z" stroke="#090909" stroke-width="3" stroke-miterlimit="10" stroke-linecap="round" stroke-linejoin="round"/>
</g>
</svg>
