<svg width="60" height="90" viewBox="0 0 72 90" fill="none" xmlns="http://www.w3.org/2000/svg">
<g id="mail 1">
<path id="Vector" fill-rule="evenodd" clip-rule="evenodd" d="M5.97559 32.9761C5.97559 28.0081 10.0076 23.9761 14.9756 23.9761H56.9516C61.9196 23.9761 65.9516 28.0081 65.9516 32.9761V56.9521C65.9516 61.9201 61.9196 65.9521 56.9516 65.9521H14.9756C10.0076 65.9521 5.97559 61.9201 5.97559 56.9521V32.9761ZM14.9756 27.0001H56.9516C58.0316 27.0001 58.9676 27.2881 59.8316 27.7201L40.7516 43.3441C38.0156 45.5761 34.0556 45.5761 31.2476 43.3441L29.8076 42.1921C29.7356 42.1201 29.6636 42.0481 29.5916 42.0481L12.0956 27.7201C12.9596 27.2881 13.9676 27.0001 14.9756 27.0001ZM9.93559 29.8081L26.5676 43.3441L9.86359 60.0481C9.35959 59.1841 8.99959 58.1041 8.99959 57.0241V32.9761C8.99959 31.8241 9.35959 30.7441 9.93559 29.8081ZM28.8716 45.2161L11.9516 62.1361C12.8156 62.6401 13.8956 63.0001 14.9756 63.0001H56.9516C58.1756 63.0001 59.2556 62.6401 60.1916 62.0641L43.2716 45.1441L42.6236 45.6481C38.7356 48.8161 33.2636 48.8161 29.3756 45.6481L28.8716 45.2161ZM45.6476 43.2001L62.2796 59.8321C62.7116 58.9681 62.9996 58.0321 62.9996 56.9521V32.9761C62.9996 31.8241 62.6396 30.7441 62.0636 29.8081L45.6476 43.2001Z" fill="#090909"/>
</g>
</svg>
