<svg width="59" height="470" viewBox="0 0 59 470" fill="none" xmlns="http://www.w3.org/2000/svg">
<path d="M38 469.775H0.239998L0.239998 464.015H38V469.775ZM38 462.095H0.239998L0.239998 456.335H38V462.095ZM38 454.415H0.239998L0.239998 452.495H38V454.415ZM38 450.575H0.239998L0.239998 448.655H38V450.575ZM38 442.895H0.239998L0.239998 440.975H38V442.895ZM43.568 459.407V458.063L50.864 454.415L43.568 450.703V449.423H58.416V451.023H47.216L53.232 454.223V454.863L47.28 457.871H58.416V459.407H43.568ZM38 442.225H0.239998L0.239998 436.465H38V442.225ZM38 434.545H0.239998L0.239998 432.625H38V434.545ZM38 430.705H0.239998L0.239998 424.945H38V430.705ZM38 423.025H0.239998L0.239998 421.105H38L38 423.025ZM38 415.345H0.239998L0.239998 413.425H38V415.345ZM58.672 426.865C58.672 428.572 58.0107 429.873 56.688 430.769C55.3653 431.708 53.488 432.177 51.056 432.177C48.7093 432.177 46.8533 431.708 45.488 430.769C44.1653 429.83 43.504 428.529 43.504 426.865C43.504 425.201 44.1653 423.9 45.488 422.961C46.8533 422.022 48.7093 421.553 51.056 421.553C53.488 421.553 55.3653 422.022 56.688 422.961C58.0107 423.857 58.672 425.158 58.672 426.865ZM57.2 426.865C57.2 425.713 56.688 424.838 55.664 424.241C54.5973 423.601 53.0613 423.281 51.056 423.281C49.1787 423.281 47.6853 423.601 46.576 424.241C45.5093 424.881 44.976 425.756 44.976 426.865C44.976 427.974 45.5093 428.849 46.576 429.489C47.6853 430.129 49.1787 430.449 51.056 430.449C53.0613 430.449 54.5973 430.15 55.664 429.553C56.688 428.913 57.2 428.017 57.2 426.865ZM38 414.675H0.239998L0.239998 408.915H38V414.675ZM38 406.995H0.239998L0.239998 405.075H38V406.995ZM38 403.155H0.239998L0.239998 401.235H38V403.155ZM38 395.475H0.239998L0.239998 389.715H38V395.475ZM38 387.795H0.239998L0.239998 385.875H38V387.795ZM43.568 404.051V402.131H43.76C43.8453 402.216 43.952 402.28 44.08 402.323C44.1653 402.323 44.3573 402.323 44.656 402.323H49.904V396.563H43.568V394.579H43.76C43.8453 394.664 43.952 394.728 44.08 394.771C44.1653 394.771 44.3573 394.771 44.656 394.771H58.416V396.563H51.376V402.323H58.416V404.051H43.568ZM38 387.125H0.239998L0.239998 381.365H38V387.125ZM38 379.445H0.239998L0.239998 377.525H38V379.445ZM38 375.605H0.239998L0.239998 373.685H38V375.605ZM38 367.925H0.239998L0.239998 366.005H38V367.925ZM38 364.085H0.239998L0.239998 358.325H38V364.085ZM54.064 369.397V374.197L58.416 375.669V377.333L43.312 371.893V371.701L58.416 366.197V367.925L54.064 369.397ZM52.784 369.845L47.152 371.765L52.784 373.749V369.845ZM38 359.575H0.239998L0.239998 357.655H38V359.575ZM38 355.735H0.239998L0.239998 353.815H38V355.735ZM38 351.895H0.239998L0.239998 346.135H38V351.895ZM38 344.215H0.239998L0.239998 342.295H38V344.215ZM38 336.535H0.239998L0.239998 330.775H38V336.535ZM43.568 348.951V347.351L54.576 341.143H43.568V339.287H43.76C43.8453 339.415 43.952 339.479 44.08 339.479C44.1653 339.522 44.3573 339.543 44.656 339.543H58.416V340.823L46.768 347.415H58.416V348.951H43.568ZM38 332.025H0.239998L0.239998 326.265H38V332.025ZM38 324.345H0.239998L0.239998 322.425H38V324.345ZM38 320.505H0.239998L0.239998 318.585H38V320.505ZM38 312.825H0.239998L0.239998 310.905H38V312.825ZM38 308.985H0.239998L0.239998 303.225H38L38 308.985ZM54.064 314.297V319.097L58.416 320.569V322.233L43.312 316.793V316.601L58.416 311.097V312.825L54.064 314.297ZM52.784 314.745L47.152 316.665L52.784 318.649V314.745ZM38 304.475H0.239998L0.239998 298.715H38V304.475ZM38 296.795H0.239998L0.239998 291.035H38V296.795ZM38 289.115H0.239998L0.239998 287.195H38V289.115ZM38 285.275H0.239998L0.239998 283.355H38V285.275ZM38 277.595H0.239998L0.239998 275.675H38V277.595ZM43.568 294.107V292.763L50.864 289.115L43.568 285.403V284.123H58.416V285.723H47.216L53.232 288.923V289.563L47.28 292.571H58.416V294.107H43.568ZM38 276.925H0.239998L0.239998 271.165H38V276.925ZM38 269.245H0.239998L0.239998 267.325H38V269.245ZM38 265.405H0.239998L0.239998 263.485H38V265.405ZM38 257.725H0.239998L0.239998 255.805H38V257.725ZM38 253.885H0.239998L0.239998 248.125H38V253.885ZM54.064 259.197V263.997L58.416 265.469V267.133L43.312 261.693V261.501L58.416 255.997V257.725L54.064 259.197ZM52.784 259.645L47.152 261.565L52.784 263.549V259.645ZM38 249.375H0.239998L0.239998 247.455H38V249.375ZM38 245.535H0.239998L0.239998 243.615H38V245.535ZM38 241.695H0.239998L0.239998 235.935H38V241.695ZM38 234.015H0.239998L0.239998 232.095H38V234.015ZM38 226.335H0.239998L0.239998 220.575H38V226.335ZM43.568 238.751V237.151L54.576 230.943H43.568V229.087H43.76C43.8453 229.215 43.952 229.279 44.08 229.279C44.1653 229.322 44.3573 229.343 44.656 229.343H58.416V230.623L46.768 237.215H58.416V238.751H43.568ZM38 221.825H0.239998L0.239998 219.905H38V221.825ZM38 217.985H0.239998L0.239998 216.065H38V217.985ZM38 214.145H0.239998L0.239998 208.385H38V214.145ZM38 206.465H0.239998L0.239998 200.705H38V206.465ZM38 194.945H0.239998L0.239998 193.025H38V194.945ZM45.04 207.489V211.649H43.568V201.409H45.04V205.761H58.416V207.489H45.04ZM38 194.275H0.239998L0.239998 188.515H38L38 194.275ZM38 186.595H0.239998L0.239998 184.675H38V186.595ZM38 182.755H0.239998L0.239998 180.835H38V182.755ZM38 178.915H0.239998L0.239998 173.155H38V178.915ZM38 167.395H0.239998L0.239998 165.475H38V167.395ZM43.568 183.523V179.171C43.568 177.464 43.952 176.227 44.72 175.459C45.4453 174.648 46.4907 174.243 47.856 174.243C48.7093 174.243 49.52 174.52 50.288 175.075C51.056 175.63 51.568 176.355 51.824 177.251L58.416 173.795V175.651L51.888 178.979V181.859H58.416V183.523H43.568ZM50.416 178.979C50.416 177.955 50.1813 177.187 49.712 176.675C49.2853 176.206 48.6667 175.971 47.856 175.971C47.0453 175.971 46.384 176.206 45.872 176.675C45.4027 177.187 45.168 177.955 45.168 178.979V181.859H50.416V178.979ZM38 166.725H0.239998L0.239998 160.965H38V166.725ZM38 159.045H0.239998L0.239998 157.125H38V159.045ZM38 155.205H0.239998L0.239998 153.285H38V155.205ZM38 147.525H0.239998L0.239998 145.605H38V147.525ZM38 143.685H0.239998L0.239998 137.925H38V143.685ZM54.064 148.997V153.797L58.416 155.269V156.933L43.312 151.493V151.301L58.416 145.797V147.525L54.064 148.997ZM52.784 149.445L47.152 151.365L52.784 153.349V149.445ZM38 139.175H0.239998L0.239998 137.255H38V139.175ZM38 131.495H0.239998L0.239998 125.735H38V131.495ZM38 123.815H0.239998L0.239998 121.895H38V123.815ZM38 119.975H0.239998L0.239998 114.215H38V119.975ZM38 112.295H0.239998L0.239998 110.375H38V112.295ZM38 111.625H0.239998L0.239998 109.705H38V111.625ZM38 107.785H0.239998L0.239998 102.025H38V107.785ZM38 96.265H0.239998L0.239998 94.345H38V96.265ZM38 92.425H0.239998L0.239998 90.505H38V92.425ZM38 88.585H0.239998L0.239998 82.825H38V88.585ZM57.072 100.489L55.152 98.569C53.872 97.289 52.848 96.329 52.08 95.689C51.3547 95.049 50.6293 94.537 49.904 94.153C49.2213 93.769 48.4747 93.577 47.664 93.577C46.7253 93.577 46.0427 93.7903 45.616 94.217C45.1893 94.6863 44.976 95.305 44.976 96.073C44.976 97.2677 45.4667 98.2703 46.448 99.081C46.704 99.2517 46.9173 99.337 47.088 99.337C47.216 99.337 47.3013 99.337 47.344 99.337L47.472 99.465L47.344 99.593L46.384 100.809C45.4453 100.34 44.7413 99.6997 44.272 98.889C43.76 98.0783 43.504 97.1397 43.504 96.073C43.504 94.8357 43.888 93.8117 44.656 93.001C45.424 92.233 46.448 91.849 47.728 91.849C48.5813 91.849 49.4133 92.0623 50.224 92.489C51.0347 92.873 51.8027 93.385 52.528 94.025C53.2533 94.665 54.192 95.561 55.344 96.713L56.944 98.313V92.809C56.944 92.553 56.944 92.361 56.944 92.233C56.9013 92.1477 56.8373 92.041 56.752 91.913V91.785H58.416V100.489H57.072ZM38 84.075H0.239998L0.239998 82.155H38V84.075ZM38 80.235H0.239998L0.239998 78.315H38V80.235ZM38 72.555H0.239998L0.239998 66.795H38V72.555ZM38 64.875H0.239998L0.239998 59.115H38V64.875ZM38 57.195H0.239998L0.239998 55.275H38V57.195ZM43.504 68.715C43.504 67.2643 44.1653 66.1336 45.488 65.323C46.8533 64.5123 48.7093 64.107 51.056 64.107C53.488 64.107 55.3653 64.5123 56.688 65.323C58.0107 66.091 58.672 67.2216 58.672 68.715C58.672 70.2083 58.0107 71.339 56.688 72.107C55.3653 72.9176 53.488 73.323 51.056 73.323C48.7093 73.323 46.8533 72.9176 45.488 72.107C44.1653 71.2963 43.504 70.1656 43.504 68.715ZM44.976 68.715C44.976 69.611 45.5093 70.315 46.576 70.827C47.6853 71.339 49.1787 71.595 51.056 71.595C52.1227 71.595 53.04 71.531 53.808 71.403L47.28 66.347C46.5547 66.5603 45.9787 66.8803 45.552 67.307C45.168 67.691 44.976 68.1603 44.976 68.715ZM57.2 68.715C57.2 67.819 56.688 67.115 55.664 66.603C54.5973 66.091 53.0613 65.835 51.056 65.835C50.16 65.835 49.3707 65.899 48.688 66.027L55.152 71.019C56.5173 70.5496 57.2 69.7816 57.2 68.715ZM38 56.525H0.239998L0.239998 54.605H38V56.525ZM38 52.685H0.239998L0.239998 46.925H38V52.685ZM38 41.165H0.239998L0.239998 39.245H38V41.165ZM38 37.325H0.239998L0.239998 35.405H38V37.325ZM38 33.485H0.239998L0.239998 27.725H38V33.485ZM57.072 45.389L55.152 43.469C53.872 42.189 52.848 41.229 52.08 40.589C51.3547 39.949 50.6293 39.437 49.904 39.053C49.2213 38.669 48.4747 38.477 47.664 38.477C46.7253 38.477 46.0427 38.6903 45.616 39.117C45.1893 39.5863 44.976 40.205 44.976 40.973C44.976 42.1677 45.4667 43.1703 46.448 43.981C46.704 44.1517 46.9173 44.237 47.088 44.237C47.216 44.237 47.3013 44.237 47.344 44.237L47.472 44.365L47.344 44.493L46.384 45.709C45.4453 45.2397 44.7413 44.5997 44.272 43.789C43.76 42.9783 43.504 42.0397 43.504 40.973C43.504 39.7357 43.888 38.7117 44.656 37.901C45.424 37.133 46.448 36.749 47.728 36.749C48.5813 36.749 49.4133 36.9623 50.224 37.389C51.0347 37.773 51.8027 38.285 52.528 38.925C53.2533 39.565 54.192 40.461 55.344 41.613L56.944 43.213V37.709C56.944 37.453 56.944 37.261 56.944 37.133C56.9013 37.0477 56.8373 36.941 56.752 36.813V36.685H58.416V45.389H57.072ZM38 28.975H0.239998L0.239998 23.215H38V28.975ZM38 21.295H0.239998L0.239998 15.535H38V21.295ZM38 9.77501H0.239998L0.239998 7.85501H38V9.77501ZM38 5.93501H0.239998L0.239998 4.01501H38V5.93501ZM38 2.09501H0.239998L0.239998 0.175005H38V2.09501ZM58.672 13.871C58.672 14.639 58.5227 15.3857 58.224 16.111C57.968 16.7937 57.5627 17.391 57.008 17.903L55.664 16.815L55.472 16.687L55.6 16.559C55.7707 16.5163 55.92 16.4737 56.048 16.431C56.1333 16.3883 56.2613 16.2817 56.432 16.111C56.688 15.8123 56.88 15.4923 57.008 15.151C57.1787 14.8097 57.264 14.4043 57.264 13.935C57.264 12.9963 56.9867 12.2923 56.432 11.823C55.92 11.3537 55.1947 11.119 54.256 11.119C53.2747 11.119 52.5493 11.4177 52.08 12.015C51.568 12.6123 51.312 13.4443 51.312 14.511C51.312 14.6817 51.3333 14.9377 51.376 15.279H50.032C50.032 13.871 49.776 12.911 49.264 12.399C48.752 11.887 48.0267 11.631 47.088 11.631C46.448 11.631 45.9147 11.823 45.488 12.207C45.104 12.591 44.912 13.103 44.912 13.743C44.912 14.767 45.2747 15.663 46 16.431L45.04 17.455C44.016 16.4737 43.504 15.2363 43.504 13.743C43.504 12.5483 43.8453 11.6097 44.528 10.927C45.168 10.2443 46.064 9.90301 47.216 9.90301C47.984 9.90301 48.688 10.095 49.328 10.479C49.9253 10.9057 50.3307 11.4817 50.544 12.207C50.8427 11.3537 51.312 10.671 51.952 10.159C52.592 9.64701 53.3813 9.391 54.32 9.391C55.1307 9.391 55.856 9.56167 56.496 9.90301C57.1787 10.287 57.712 10.799 58.096 11.439C58.48 12.1217 58.672 12.9323 58.672 13.871Z" fill="#090909"/>
</svg>
