<svg width="95" height="96" viewBox="0 0 95 96" fill="none" xmlns="http://www.w3.org/2000/svg">
<g id="Pattern">
<rect id="Rectangle 6" y="23.956" width="3" height="3" transform="rotate(-18.0218 0 23.956)" fill="#080808"/>
<rect id="Rectangle 6_2" x="7.60742" y="21.481" width="3" height="3" transform="rotate(-18.0218 7.60742 21.481)" fill="#080808"/>
<rect id="Rectangle 6_3" x="15.2148" y="19.0059" width="3" height="3" transform="rotate(-18.0218 15.2148 19.0059)" fill="#080808"/>
<rect id="Rectangle 6_4" x="22.8228" y="16.5309" width="3" height="3" transform="rotate(-18.0218 22.8228 16.5309)" fill="#080808"/>
<rect id="Rectangle 6_5" x="30.4302" y="14.0559" width="3" height="3" transform="rotate(-18.0218 30.4302 14.0559)" fill="#080808"/>
<rect id="Rectangle 6_6" x="38.0376" y="11.5809" width="3" height="3" transform="rotate(-18.0218 38.0376 11.5809)" fill="#080808"/>
<rect id="Rectangle 6_7" x="45.645" y="9.10583" width="3" height="3" transform="rotate(-18.0218 45.645 9.10583)" fill="#080808"/>
<rect id="Rectangle 6_8" x="53.2524" y="6.6308" width="3" height="3" transform="rotate(-18.0218 53.2524 6.6308)" fill="#080808"/>
<rect id="Rectangle 6_9" x="60.8599" y="4.15576" width="3" height="3" transform="rotate(-18.0218 60.8599 4.15576)" fill="#080808"/>
<rect id="Rectangle 6_10" x="68.4678" y="1.68073" width="3" height="3" transform="rotate(-18.0218 68.4678 1.68073)" fill="#080808"/>
<rect id="Rectangle 6_11" x="2.4751" y="31.5635" width="3" height="3" transform="rotate(-18.0218 2.4751 31.5635)" fill="#080808"/>
<rect id="Rectangle 6_12" x="10.0825" y="29.0885" width="3" height="3" transform="rotate(-18.0218 10.0825 29.0885)" fill="#080808"/>
<rect id="Rectangle 6_13" x="17.6899" y="26.6135" width="3" height="3" transform="rotate(-18.0218 17.6899 26.6135)" fill="#080808"/>
<rect id="Rectangle 6_14" x="25.2974" y="24.1384" width="3" height="3" transform="rotate(-18.0218 25.2974 24.1384)" fill="#080808"/>
<rect id="Rectangle 6_15" x="32.9053" y="21.6634" width="3" height="3" transform="rotate(-18.0218 32.9053 21.6634)" fill="#080808"/>
<rect id="Rectangle 6_16" x="40.5127" y="19.1884" width="3" height="3" transform="rotate(-18.0218 40.5127 19.1884)" fill="#080808"/>
<rect id="Rectangle 6_17" x="48.1201" y="16.7133" width="3" height="3" transform="rotate(-18.0218 48.1201 16.7133)" fill="#080808"/>
<rect id="Rectangle 6_18" x="55.7275" y="14.2383" width="3" height="3" transform="rotate(-18.0218 55.7275 14.2383)" fill="#080808"/>
<rect id="Rectangle 6_19" x="63.335" y="11.7632" width="3" height="3" transform="rotate(-18.0218 63.335 11.7632)" fill="#080808"/>
<rect id="Rectangle 6_20" x="70.9429" y="9.28827" width="3" height="3" transform="rotate(-18.0218 70.9429 9.28827)" fill="#080808"/>
<rect id="Rectangle 6_21" x="4.9502" y="39.171" width="3" height="3" transform="rotate(-18.0218 4.9502 39.171)" fill="#080808"/>
<rect id="Rectangle 6_22" x="12.5576" y="36.696" width="3" height="3" transform="rotate(-18.0218 12.5576 36.696)" fill="#080808"/>
<rect id="Rectangle 6_23" x="20.165" y="34.2209" width="3" height="3" transform="rotate(-18.0218 20.165 34.2209)" fill="#080808"/>
<rect id="Rectangle 6_24" x="27.7725" y="31.7459" width="3" height="3" transform="rotate(-18.0218 27.7725 31.7459)" fill="#080808"/>
<rect id="Rectangle 6_25" x="35.3799" y="29.2709" width="3" height="3" transform="rotate(-18.0218 35.3799 29.2709)" fill="#080808"/>
<rect id="Rectangle 6_26" x="42.9878" y="26.7959" width="3" height="3" transform="rotate(-18.0218 42.9878 26.7959)" fill="#080808"/>
<rect id="Rectangle 6_27" x="50.5952" y="24.3209" width="3" height="3" transform="rotate(-18.0218 50.5952 24.3209)" fill="#080808"/>
<rect id="Rectangle 6_28" x="58.2026" y="21.8458" width="3" height="3" transform="rotate(-18.0218 58.2026 21.8458)" fill="#080808"/>
<rect id="Rectangle 6_29" x="65.8101" y="19.3708" width="3" height="3" transform="rotate(-18.0218 65.8101 19.3708)" fill="#080808"/>
<rect id="Rectangle 6_30" x="73.4175" y="16.8958" width="3" height="3" transform="rotate(-18.0218 73.4175 16.8958)" fill="#080808"/>
<rect id="Rectangle 6_31" x="7.42529" y="46.7785" width="3" height="3" transform="rotate(-18.0218 7.42529 46.7785)" fill="#080808"/>
<rect id="Rectangle 6_32" x="15.0327" y="44.3035" width="3" height="3" transform="rotate(-18.0218 15.0327 44.3035)" fill="#080808"/>
<rect id="Rectangle 6_33" x="22.6401" y="41.8285" width="3" height="3" transform="rotate(-18.0218 22.6401 41.8285)" fill="#080808"/>
<rect id="Rectangle 6_34" x="30.2476" y="39.3535" width="3" height="3" transform="rotate(-18.0218 30.2476 39.3535)" fill="#080808"/>
<rect id="Rectangle 6_35" x="37.855" y="36.8784" width="3" height="3" transform="rotate(-18.0218 37.855 36.8784)" fill="#080808"/>
<rect id="Rectangle 6_36" x="45.4624" y="34.4034" width="3" height="3" transform="rotate(-18.0218 45.4624 34.4034)" fill="#080808"/>
<rect id="Rectangle 6_37" x="53.0703" y="31.9283" width="3" height="3" transform="rotate(-18.0218 53.0703 31.9283)" fill="#080808"/>
<rect id="Rectangle 6_38" x="60.6777" y="29.4533" width="3" height="3" transform="rotate(-18.0218 60.6777 29.4533)" fill="#080808"/>
<rect id="Rectangle 6_39" x="68.2852" y="26.9783" width="3" height="3" transform="rotate(-18.0218 68.2852 26.9783)" fill="#080808"/>
<rect id="Rectangle 6_40" x="75.8926" y="24.5033" width="3" height="3" transform="rotate(-18.0218 75.8926 24.5033)" fill="#080808"/>
<rect id="Rectangle 6_41" x="9.8999" y="54.386" width="3" height="3" transform="rotate(-18.0218 9.8999 54.386)" fill="#080808"/>
<rect id="Rectangle 6_42" x="17.5078" y="51.911" width="3" height="3" transform="rotate(-18.0218 17.5078 51.911)" fill="#080808"/>
<rect id="Rectangle 6_43" x="25.1152" y="49.436" width="3" height="3" transform="rotate(-18.0218 25.1152 49.436)" fill="#080808"/>
<rect id="Rectangle 6_44" x="32.7227" y="46.9609" width="3" height="3" transform="rotate(-18.0218 32.7227 46.9609)" fill="#080808"/>
<rect id="Rectangle 6_45" x="40.3301" y="44.4859" width="3" height="3" transform="rotate(-18.0218 40.3301 44.4859)" fill="#080808"/>
<rect id="Rectangle 6_46" x="47.9375" y="42.0109" width="3" height="3" transform="rotate(-18.0218 47.9375 42.0109)" fill="#080808"/>
<rect id="Rectangle 6_47" x="55.5454" y="39.5359" width="3" height="3" transform="rotate(-18.0218 55.5454 39.5359)" fill="#080808"/>
<rect id="Rectangle 6_48" x="63.1528" y="37.0609" width="3" height="3" transform="rotate(-18.0218 63.1528 37.0609)" fill="#080808"/>
<rect id="Rectangle 6_49" x="70.7603" y="34.5858" width="3" height="3" transform="rotate(-18.0218 70.7603 34.5858)" fill="#080808"/>
<rect id="Rectangle 6_50" x="78.3677" y="32.1108" width="3" height="3" transform="rotate(-18.0218 78.3677 32.1108)" fill="#080808"/>
<rect id="Rectangle 6_51" x="12.375" y="61.9935" width="3" height="3" transform="rotate(-18.0218 12.375 61.9935)" fill="#080808"/>
<rect id="Rectangle 6_52" x="19.9824" y="59.5185" width="3" height="3" transform="rotate(-18.0218 19.9824 59.5185)" fill="#080808"/>
<rect id="Rectangle 6_53" x="27.5903" y="57.0435" width="3" height="3" transform="rotate(-18.0218 27.5903 57.0435)" fill="#080808"/>
<rect id="Rectangle 6_54" x="35.1978" y="54.5685" width="3" height="3" transform="rotate(-18.0218 35.1978 54.5685)" fill="#080808"/>
<rect id="Rectangle 6_55" x="42.8052" y="52.0934" width="3" height="3" transform="rotate(-18.0218 42.8052 52.0934)" fill="#080808"/>
<rect id="Rectangle 6_56" x="50.4126" y="49.6184" width="3" height="3" transform="rotate(-18.0218 50.4126 49.6184)" fill="#080808"/>
<rect id="Rectangle 6_57" x="58.02" y="47.1434" width="3" height="3" transform="rotate(-18.0218 58.02 47.1434)" fill="#080808"/>
<rect id="Rectangle 6_58" x="65.6279" y="44.6683" width="3" height="3" transform="rotate(-18.0218 65.6279 44.6683)" fill="#080808"/>
<rect id="Rectangle 6_59" x="73.2354" y="42.1933" width="3" height="3" transform="rotate(-18.0218 73.2354 42.1933)" fill="#080808"/>
<rect id="Rectangle 6_60" x="80.8428" y="39.7183" width="3" height="3" transform="rotate(-18.0218 80.8428 39.7183)" fill="#080808"/>
<rect id="Rectangle 6_61" x="14.8501" y="69.6011" width="3" height="3" transform="rotate(-18.0218 14.8501 69.6011)" fill="#080808"/>
<rect id="Rectangle 6_62" x="22.4575" y="67.126" width="3" height="3" transform="rotate(-18.0218 22.4575 67.126)" fill="#080808"/>
<rect id="Rectangle 6_63" x="30.0654" y="64.651" width="3" height="3" transform="rotate(-18.0218 30.0654 64.651)" fill="#080808"/>
<rect id="Rectangle 6_64" x="37.6729" y="62.176" width="3" height="3" transform="rotate(-18.0218 37.6729 62.176)" fill="#080808"/>
<rect id="Rectangle 6_65" x="45.2803" y="59.7009" width="3" height="3" transform="rotate(-18.0218 45.2803 59.7009)" fill="#080808"/>
<rect id="Rectangle 6_66" x="52.8877" y="57.2259" width="3" height="3" transform="rotate(-18.0218 52.8877 57.2259)" fill="#080808"/>
<rect id="Rectangle 6_67" x="60.4951" y="54.7509" width="3" height="3" transform="rotate(-18.0218 60.4951 54.7509)" fill="#080808"/>
<rect id="Rectangle 6_68" x="68.1025" y="52.2759" width="3" height="3" transform="rotate(-18.0218 68.1025 52.2759)" fill="#080808"/>
<rect id="Rectangle 6_69" x="75.7104" y="49.8008" width="3" height="3" transform="rotate(-18.0218 75.7104 49.8008)" fill="#080808"/>
<rect id="Rectangle 6_70" x="83.3179" y="47.3258" width="3" height="3" transform="rotate(-18.0218 83.3179 47.3258)" fill="#080808"/>
<rect id="Rectangle 6_71" x="17.3252" y="77.2086" width="3" height="3" transform="rotate(-18.0218 17.3252 77.2086)" fill="#080808"/>
<rect id="Rectangle 6_72" x="24.9326" y="74.7335" width="3" height="3" transform="rotate(-18.0218 24.9326 74.7335)" fill="#080808"/>
<rect id="Rectangle 6_73" x="32.54" y="72.2585" width="3" height="3" transform="rotate(-18.0218 32.54 72.2585)" fill="#080808"/>
<rect id="Rectangle 6_74" x="40.1479" y="69.7835" width="3" height="3" transform="rotate(-18.0218 40.1479 69.7835)" fill="#080808"/>
<rect id="Rectangle 6_75" x="47.7554" y="67.3085" width="3" height="3" transform="rotate(-18.0218 47.7554 67.3085)" fill="#080808"/>
<rect id="Rectangle 6_76" x="55.3628" y="64.8334" width="3" height="3" transform="rotate(-18.0218 55.3628 64.8334)" fill="#080808"/>
<rect id="Rectangle 6_77" x="62.9702" y="62.3584" width="3" height="3" transform="rotate(-18.0218 62.9702 62.3584)" fill="#080808"/>
<rect id="Rectangle 6_78" x="70.5776" y="59.8834" width="3" height="3" transform="rotate(-18.0218 70.5776 59.8834)" fill="#080808"/>
<rect id="Rectangle 6_79" x="78.1851" y="57.4083" width="3" height="3" transform="rotate(-18.0218 78.1851 57.4083)" fill="#080808"/>
<rect id="Rectangle 6_80" x="85.793" y="54.9333" width="3" height="3" transform="rotate(-18.0218 85.793 54.9333)" fill="#080808"/>
<rect id="Rectangle 6_81" x="19.8003" y="84.8161" width="3" height="3" transform="rotate(-18.0218 19.8003 84.8161)" fill="#080808"/>
<rect id="Rectangle 6_82" x="27.4077" y="82.3411" width="3" height="3" transform="rotate(-18.0218 27.4077 82.3411)" fill="#080808"/>
<rect id="Rectangle 6_83" x="35.0151" y="79.866" width="3" height="3" transform="rotate(-18.0218 35.0151 79.866)" fill="#080808"/>
<rect id="Rectangle 6_84" x="42.6226" y="77.391" width="3" height="3" transform="rotate(-18.0218 42.6226 77.391)" fill="#080808"/>
<rect id="Rectangle 6_85" x="50.2305" y="74.916" width="3" height="3" transform="rotate(-18.0218 50.2305 74.916)" fill="#080808"/>
<rect id="Rectangle 6_86" x="57.8379" y="72.4409" width="3" height="3" transform="rotate(-18.0218 57.8379 72.4409)" fill="#080808"/>
<rect id="Rectangle 6_87" x="65.4453" y="69.9659" width="3" height="3" transform="rotate(-18.0218 65.4453 69.9659)" fill="#080808"/>
<rect id="Rectangle 6_88" x="73.0527" y="67.4909" width="3" height="3" transform="rotate(-18.0218 73.0527 67.4909)" fill="#080808"/>
<rect id="Rectangle 6_89" x="80.6602" y="65.0159" width="3" height="3" transform="rotate(-18.0218 80.6602 65.0159)" fill="#080808"/>
<rect id="Rectangle 6_90" x="88.2681" y="62.5408" width="3" height="3" transform="rotate(-18.0218 88.2681 62.5408)" fill="#080808"/>
<rect id="Rectangle 6_91" x="22.2754" y="92.4236" width="3" height="3" transform="rotate(-18.0218 22.2754 92.4236)" fill="#080808"/>
<rect id="Rectangle 6_92" x="29.8828" y="89.9485" width="3" height="3" transform="rotate(-18.0218 29.8828 89.9485)" fill="#080808"/>
<rect id="Rectangle 6_93" x="37.4902" y="87.4735" width="3" height="3" transform="rotate(-18.0218 37.4902 87.4735)" fill="#080808"/>
<rect id="Rectangle 6_94" x="45.0977" y="84.9985" width="3" height="3" transform="rotate(-18.0218 45.0977 84.9985)" fill="#080808"/>
<rect id="Rectangle 6_95" x="52.7051" y="82.5235" width="3" height="3" transform="rotate(-18.0218 52.7051 82.5235)" fill="#080808"/>
<rect id="Rectangle 6_96" x="60.313" y="80.0485" width="3" height="3" transform="rotate(-18.0218 60.313 80.0485)" fill="#080808"/>
<rect id="Rectangle 6_97" x="67.9204" y="77.5734" width="3" height="3" transform="rotate(-18.0218 67.9204 77.5734)" fill="#080808"/>
<rect id="Rectangle 6_98" x="75.5278" y="75.0984" width="3" height="3" transform="rotate(-18.0218 75.5278 75.0984)" fill="#080808"/>
<rect id="Rectangle 6_99" x="83.1353" y="72.6234" width="3" height="3" transform="rotate(-18.0218 83.1353 72.6234)" fill="#080808"/>
<rect id="Rectangle 6_100" x="90.7427" y="70.1483" width="3" height="3" transform="rotate(-18.0218 90.7427 70.1483)" fill="#080808"/>
</g>
</svg>
