<svg width="45" height="57" viewBox="0 0 45 57" fill="none" xmlns="http://www.w3.org/2000/svg">
<g id="phone 1">
<path id="Vector" fill-rule="evenodd" clip-rule="evenodd" d="M11.2263 16.601L13.5 15.2575C14.5895 14.6338 16.0105 15.0176 16.6263 16.1212L19.7053 21.4949C19.7053 21.4949 19.7053 21.5429 19.7526 21.5429C20.1789 22.3105 19.8947 23.2701 19.1368 23.702L16.9579 24.9974C16.9105 25.0454 16.8632 25.0934 16.8632 25.1414C16.8632 25.1893 16.8158 25.2853 16.8632 25.3333C17.2895 26.7247 18.8526 28.7398 20.6053 30.5631C22.4053 32.3863 24.3947 33.9217 25.7684 34.3535C25.9105 34.4015 26.0526 34.3535 26.1 34.2095C26.1 34.2095 26.1 34.2095 26.1 34.1616L27.3316 32.0025C27.7579 31.2348 28.7526 30.9469 29.5105 31.4267L34.8158 34.5454C35.9053 35.1691 36.2842 36.6085 35.6684 37.7121L35.1947 38.5277L37.3737 39.8232C38.1316 40.255 39.0789 40.0151 39.5053 39.2954C45.3316 29.7474 42.4895 17.2247 33.1105 11.2752C23.7316 5.3257 11.3684 8.20449 5.49473 17.7045C-0.378949 27.2045 2.46316 39.7272 11.8421 45.6767C18.9 50.1868 27.9947 49.755 34.6263 44.6212C34.9105 44.3813 35.3368 44.4292 35.5737 44.7651C35.8105 45.053 35.7632 45.4848 35.4316 45.7247C26.0526 52.9696 12.6474 51.0984 5.5421 41.5984C-1.56316 32.0984 0.189472 18.5201 9.56842 11.2752C18.9474 4.03025 32.3526 5.90146 39.4579 15.4015C44.8579 22.5504 45.2842 32.3383 40.5947 39.9671C39.7421 41.3105 37.9895 41.7424 36.6632 40.9267L34.4842 39.6313L34.2947 39.9671C34.2474 40.0151 34.2 40.0631 34.1526 40.111C30.9789 42.9898 26.3842 42.3661 21.9789 39.9191C19.7526 38.6237 17.6684 37.0403 15.8684 35.2171C14.021 33.3939 12.4579 31.3308 11.2263 29.0277C8.81052 24.5656 8.19473 19.9116 11.0368 16.6969C11.0842 16.6969 11.1316 16.601 11.2263 16.601ZM14.1158 16.409L11.9368 17.7045C9.61579 20.4393 10.2316 24.4696 12.3632 28.404C13.5474 30.5631 15.0632 32.5302 16.8158 34.2575C18.521 36.0328 20.4632 37.5201 22.5947 38.7676C26.4789 40.9267 30.4579 41.5504 33.1579 39.1994L34.4368 36.9924C34.721 36.5126 34.5316 35.9368 34.1053 35.6489L28.8474 32.5782C28.8 32.5782 28.8 32.5302 28.8 32.5302C28.7526 32.5302 28.6579 32.4823 28.6105 32.5302C28.5632 32.5302 28.4684 32.5782 28.4684 32.6262C28.4684 32.6742 28.421 32.6742 28.421 32.7222L27.2368 34.8333V34.8813C26.8579 35.553 26.0526 35.8409 25.3421 35.601C23.7789 35.0732 21.6 33.3939 19.6579 31.4747C17.7632 29.5555 16.1053 27.3004 15.5842 25.7171C15.3474 24.9974 15.6316 24.2297 16.2474 23.8459C16.2474 23.8459 16.2947 23.8459 16.2947 23.7979L18.4737 22.5025C18.521 22.4545 18.5684 22.4065 18.6158 22.3105C18.6158 22.2626 18.6158 22.1666 18.6158 22.1186L15.4421 16.7929C15.1579 16.3131 14.5895 16.1691 14.1158 16.409Z" fill="#090909" stroke="#3C3D3D" stroke-width="2"/>
</g>
</svg>
